<svg xmlns="http://www.w3.org/2000/svg" xmlns:xlink="http://www.w3.org/1999/xlink" width="196" height="96" viewBox="0 0 196 96"><defs><style>.a{fill:#2e3334;}.b,.d,.e{fill:#fff;}.b{font-size:12px;font-family:SFProDisplay-Medium, SF Pro Display;font-weight:500;}.c{font-size:16px;font-family:SFProDisplay-Bold, SF Pro Display;font-weight:700;}.e{stroke:rgba(241,91,38,0);stroke-linejoin:round;}.f{filter:url(#a);}</style><filter id="a" x="0" y="0" width="96" height="96" filterUnits="userSpaceOnUse"><feOffset input="SourceAlpha"/><feGaussianBlur stdDeviation="10" result="b"/><feFlood flood-opacity="0.161"/><feComposite operator="in" in2="b"/><feComposite in="SourceGraphic"/></filter></defs><g transform="translate(-944 -348)"><rect class="a" width="180" height="60" rx="30" transform="translate(960 366)"/><g transform="translate(974 378)"><text class="b" transform="translate(46 14)"><tspan x="0" y="0">Entrar com</tspan><tspan class="c"><tspan x="0" y="16">Apple</tspan></tspan></text><g class="f" transform="matrix(1, 0, 0, 1, -30, -30)"><circle cx="18" cy="18" r="18" transform="translate(30 30)"/></g><path class="d" d="M12.875,11.722a3.736,3.736,0,0,1,2-3.393,4.3,4.3,0,0,0-3.389-1.785c-1.421-.112-2.973.828-3.542.828-.6,0-1.977-.788-3.057-.788C2.654,6.62.281,8.365.281,11.914a9.974,9.974,0,0,0,.576,3.249c.512,1.469,2.361,5.07,4.29,5.01,1.008-.024,1.721-.716,3.033-.716,1.273,0,1.933.716,3.057.716,1.945-.028,3.618-3.3,4.106-4.774a3.967,3.967,0,0,1-2.469-3.678ZM10.61,5.151a3.769,3.769,0,0,0,.96-2.9,4.243,4.243,0,0,0-2.717,1.4A3.828,3.828,0,0,0,7.829,6.524,3.361,3.361,0,0,0,10.61,5.151Z" transform="translate(9.719 5.75)"/></g><path class="e" d="M1384,535.435a1.437,1.437,0,0,0,1.437,1.437,15.706,15.706,0,0,1,15.687,15.689,1.437,1.437,0,1,0,2.874,0A18.584,18.584,0,0,0,1385.438,534,1.437,1.437,0,0,0,1384,535.435Z" transform="translate(-274 -157.998)"/></g></svg>