<svg width="186" height="76" viewBox="0 0 186 76" fill="none" xmlns="http://www.w3.org/2000/svg">
<path d="M156 8H36C19.4315 8 6 21.4315 6 38C6 54.5685 19.4315 68 36 68H156C172.569 68 186 54.5685 186 38C186 21.4315 172.569 8 156 8Z" fill="#2E3334"/>
<path d="M71.8125 30.0566H68.1152V33.0801H72.4102V34H66.9902V25.4688H72.3516V26.3945H68.1152V29.1367H71.8125V30.0566ZM74.666 27.6602L74.7012 28.457C75.1855 27.8477 75.8184 27.543 76.5996 27.543C77.9395 27.543 78.6152 28.2988 78.627 29.8105V34H77.543V29.8047C77.5391 29.3477 77.4336 29.0098 77.2266 28.791C77.0234 28.5723 76.7051 28.4629 76.2715 28.4629C75.9199 28.4629 75.6113 28.5566 75.3457 28.7441C75.0801 28.9316 74.873 29.1777 74.7246 29.4824V34H73.6406V27.6602H74.666ZM81.7324 26.125V27.6602H82.916V28.498H81.7324V32.4297C81.7324 32.6836 81.7852 32.875 81.8906 33.0039C81.9961 33.1289 82.1758 33.1914 82.4297 33.1914C82.5547 33.1914 82.7266 33.168 82.9453 33.1211V34C82.6602 34.0781 82.3828 34.1172 82.1133 34.1172C81.6289 34.1172 81.2637 33.9707 81.0176 33.6777C80.7715 33.3848 80.6484 32.9688 80.6484 32.4297V28.498H79.4941V27.6602H80.6484V26.125H81.7324ZM87.252 28.6328C87.0879 28.6055 86.9102 28.5918 86.7188 28.5918C86.0078 28.5918 85.5254 28.8945 85.2715 29.5V34H84.1875V27.6602H85.2422L85.2598 28.3926C85.6152 27.8262 86.1191 27.543 86.7715 27.543C86.9824 27.543 87.1426 27.5703 87.252 27.625V28.6328ZM91.9336 34C91.8711 33.875 91.8203 33.6523 91.7812 33.332C91.2773 33.8555 90.6758 34.1172 89.9766 34.1172C89.3516 34.1172 88.8379 33.9414 88.4355 33.5898C88.0371 33.2344 87.8379 32.7852 87.8379 32.2422C87.8379 31.582 88.0879 31.0703 88.5879 30.707C89.0918 30.3398 89.7988 30.1562 90.709 30.1562H91.7637V29.6582C91.7637 29.2793 91.6504 28.9785 91.4238 28.7559C91.1973 28.5293 90.8633 28.416 90.4219 28.416C90.0352 28.416 89.7109 28.5137 89.4492 28.709C89.1875 28.9043 89.0566 29.1406 89.0566 29.418H87.9668C87.9668 29.1016 88.0781 28.7969 88.3008 28.5039C88.5273 28.207 88.832 27.9727 89.2148 27.8008C89.6016 27.6289 90.0254 27.543 90.4863 27.543C91.2168 27.543 91.7891 27.7266 92.2031 28.0938C92.6172 28.457 92.832 28.959 92.8477 29.5996V32.5176C92.8477 33.0996 92.9219 33.5625 93.0703 33.9062V34H91.9336ZM90.1348 33.1738C90.4746 33.1738 90.7969 33.0859 91.1016 32.9102C91.4062 32.7344 91.627 32.5059 91.7637 32.2246V30.9238H90.9141C89.5859 30.9238 88.9219 31.3125 88.9219 32.0898C88.9219 32.4297 89.0352 32.6953 89.2617 32.8867C89.4883 33.0781 89.7793 33.1738 90.1348 33.1738ZM97.6113 28.6328C97.4473 28.6055 97.2695 28.5918 97.0781 28.5918C96.3672 28.5918 95.8848 28.8945 95.6309 29.5V34H94.5469V27.6602H95.6016L95.6191 28.3926C95.9746 27.8262 96.4785 27.543 97.1309 27.543C97.3418 27.543 97.502 27.5703 97.6113 27.625V28.6328ZM104.133 33.2324C104.52 33.2324 104.857 33.1152 105.146 32.8809C105.436 32.6465 105.596 32.3535 105.627 32.002H106.652C106.633 32.3652 106.508 32.7109 106.277 33.0391C106.047 33.3672 105.738 33.6289 105.352 33.8242C104.969 34.0195 104.562 34.1172 104.133 34.1172C103.27 34.1172 102.582 33.8301 102.07 33.2559C101.562 32.6777 101.309 31.8887 101.309 30.8887V30.707C101.309 30.0898 101.422 29.541 101.648 29.0605C101.875 28.5801 102.199 28.207 102.621 27.9414C103.047 27.6758 103.549 27.543 104.127 27.543C104.838 27.543 105.428 27.7559 105.896 28.1816C106.369 28.6074 106.621 29.1602 106.652 29.8398H105.627C105.596 29.4297 105.439 29.0938 105.158 28.832C104.881 28.5664 104.537 28.4336 104.127 28.4336C103.576 28.4336 103.148 28.6328 102.844 29.0312C102.543 29.4258 102.393 29.998 102.393 30.748V30.9531C102.393 31.6836 102.543 32.2461 102.844 32.6406C103.145 33.0352 103.574 33.2324 104.133 33.2324ZM107.584 30.7715C107.584 30.1504 107.705 29.5918 107.947 29.0957C108.193 28.5996 108.533 28.2168 108.967 27.9473C109.404 27.6777 109.902 27.543 110.461 27.543C111.324 27.543 112.021 27.8418 112.553 28.4395C113.088 29.0371 113.355 29.832 113.355 30.8242V30.9004C113.355 31.5176 113.236 32.0723 112.998 32.5645C112.764 33.0527 112.426 33.4336 111.984 33.707C111.547 33.9805 111.043 34.1172 110.473 34.1172C109.613 34.1172 108.916 33.8184 108.381 33.2207C107.85 32.623 107.584 31.832 107.584 30.8477V30.7715ZM108.674 30.9004C108.674 31.6035 108.836 32.168 109.16 32.5938C109.488 33.0195 109.926 33.2324 110.473 33.2324C111.023 33.2324 111.461 33.0176 111.785 32.5879C112.109 32.1543 112.271 31.5488 112.271 30.7715C112.271 30.0762 112.105 29.5137 111.773 29.084C111.445 28.6504 111.008 28.4336 110.461 28.4336C109.926 28.4336 109.494 28.6465 109.166 29.0723C108.838 29.498 108.674 30.1074 108.674 30.9004ZM115.734 27.6602L115.764 28.3633C116.229 27.8164 116.855 27.543 117.645 27.543C118.531 27.543 119.135 27.8828 119.455 28.5625C119.666 28.2578 119.939 28.0117 120.275 27.8242C120.615 27.6367 121.016 27.543 121.477 27.543C122.867 27.543 123.574 28.2793 123.598 29.752V34H122.514V29.8164C122.514 29.3633 122.41 29.0254 122.203 28.8027C121.996 28.5762 121.648 28.4629 121.16 28.4629C120.758 28.4629 120.424 28.584 120.158 28.8262C119.893 29.0645 119.738 29.3867 119.695 29.793V34H118.605V29.8457C118.605 28.9238 118.154 28.4629 117.252 28.4629C116.541 28.4629 116.055 28.7656 115.793 29.3711V34H114.709V27.6602H115.734ZM72.5078 48.9492H68.9121L68.2285 51H66.0479L69.7529 41.0469H71.6533L75.3789 51H73.1982L72.5078 48.9492ZM69.4658 47.2881H71.9541L70.7031 43.5625L69.4658 47.2881ZM82.5088 47.3701C82.5088 48.5094 82.249 49.4232 81.7295 50.1113C81.2145 50.7949 80.5173 51.1367 79.6377 51.1367C78.8903 51.1367 78.2865 50.877 77.8262 50.3574V53.8438H75.8506V43.6035H77.6826L77.751 44.3281C78.2295 43.7539 78.8538 43.4668 79.624 43.4668C80.5355 43.4668 81.2441 43.804 81.75 44.4785C82.2559 45.153 82.5088 46.0827 82.5088 47.2676V47.3701ZM80.5332 47.2266C80.5332 46.5384 80.4102 46.0075 80.1641 45.6338C79.9225 45.2601 79.5693 45.0732 79.1045 45.0732C78.4847 45.0732 78.0586 45.3102 77.8262 45.7842V48.8125C78.0677 49.3001 78.4984 49.5439 79.1182 49.5439C80.0615 49.5439 80.5332 48.7715 80.5332 47.2266ZM90.3975 47.3701C90.3975 48.5094 90.1377 49.4232 89.6182 50.1113C89.1032 50.7949 88.4059 51.1367 87.5264 51.1367C86.779 51.1367 86.1751 50.877 85.7148 50.3574V53.8438H83.7393V43.6035H85.5713L85.6396 44.3281C86.1182 43.7539 86.7425 43.4668 87.5127 43.4668C88.4242 43.4668 89.1328 43.804 89.6387 44.4785C90.1445 45.153 90.3975 46.0827 90.3975 47.2676V47.3701ZM88.4219 47.2266C88.4219 46.5384 88.2988 46.0075 88.0527 45.6338C87.8112 45.2601 87.458 45.0732 86.9932 45.0732C86.3734 45.0732 85.9473 45.3102 85.7148 45.7842V48.8125C85.9564 49.3001 86.387 49.5439 87.0068 49.5439C87.9502 49.5439 88.4219 48.7715 88.4219 47.2266ZM93.7129 51H91.7305V40.5H93.7129V51ZM98.751 51.1367C97.6663 51.1367 96.7822 50.804 96.0986 50.1387C95.4196 49.4733 95.0801 48.5869 95.0801 47.4795V47.2881C95.0801 46.5452 95.2236 45.8822 95.5107 45.2988C95.7979 44.7109 96.2035 44.2598 96.7275 43.9453C97.2562 43.6263 97.8577 43.4668 98.5322 43.4668C99.5439 43.4668 100.339 43.7858 100.918 44.4238C101.501 45.0618 101.793 45.9665 101.793 47.1377V47.9443H97.083C97.1468 48.4274 97.3382 48.8148 97.6572 49.1064C97.9808 49.3981 98.3887 49.5439 98.8809 49.5439C99.6419 49.5439 100.237 49.2682 100.665 48.7168L101.636 49.8037C101.34 50.223 100.938 50.5511 100.433 50.7881C99.9268 51.0205 99.3662 51.1367 98.751 51.1367ZM98.5254 45.0664C98.1335 45.0664 97.8145 45.1986 97.5684 45.4629C97.3268 45.7272 97.1719 46.1055 97.1035 46.5977H99.8516V46.4404C99.8424 46.0029 99.724 45.6657 99.4961 45.4287C99.2682 45.1872 98.9447 45.0664 98.5254 45.0664Z" fill="white"/>
<g filter="url(#filter0_d)">
<path d="M38 56C47.9411 56 56 47.9411 56 38C56 28.0589 47.9411 20 38 20C28.0589 20 20 28.0589 20 38C20 47.9411 28.0589 56 38 56Z" fill="black"/>
</g>
<path d="M42.594 37.472C42.5783 36.7763 42.7572 36.09 43.1106 35.4905C43.4639 34.891 43.9777 34.4022 44.594 34.079C44.2055 33.5398 43.6972 33.098 43.1092 32.7883C42.5212 32.4786 41.8694 32.3094 41.205 32.294C39.784 32.182 38.232 33.122 37.663 33.122C37.063 33.122 35.686 32.334 34.606 32.334C32.373 32.37 30 34.115 30 37.664C30.0103 38.7714 30.2049 39.8695 30.576 40.913C31.088 42.382 32.937 45.983 34.866 45.923C35.874 45.899 36.587 45.207 37.899 45.207C39.172 45.207 39.832 45.923 40.956 45.923C42.901 45.895 44.574 42.623 45.062 41.149C44.3313 40.851 43.7061 40.3419 43.2663 39.6867C42.8265 39.0315 42.5921 38.2601 42.593 37.471L42.594 37.472ZM40.329 30.901C40.6826 30.5114 40.9506 30.0521 41.116 29.5526C41.2813 29.0531 41.3403 28.5246 41.289 28.001C40.2409 28.1139 39.2723 28.613 38.572 29.401C38.2135 29.7841 37.9377 30.2369 37.7615 30.7311C37.5854 31.2253 37.5127 31.7505 37.548 32.274C38.0877 32.2853 38.6223 32.1664 39.1063 31.9274C39.5904 31.6884 40.0098 31.3364 40.329 30.901V30.901Z" fill="white"/>
<path d="M156 19.437C156 19.8181 156.151 20.1836 156.421 20.4531C156.69 20.7226 157.056 20.874 157.437 20.874C161.596 20.879 165.584 22.5336 168.525 25.4749C171.465 28.4161 173.12 32.4037 173.124 36.5629C173.124 36.944 173.275 37.3096 173.545 37.579C173.814 37.8485 174.18 37.9999 174.561 37.9999C174.942 37.9999 175.308 37.8485 175.577 37.579C175.847 37.3096 175.998 36.944 175.998 36.5629C175.992 31.6423 174.035 26.925 170.555 23.4454C167.076 19.9659 162.359 18.0083 157.438 18.002C157.057 18.0017 156.692 18.1527 156.422 18.4218C156.152 18.6908 156.001 19.056 156 19.437V19.437Z" fill="white"/>
<defs>
<filter id="filter0_d" x="0" y="0" width="76" height="76" filterUnits="userSpaceOnUse" color-interpolation-filters="sRGB">
<feFlood flood-opacity="0" result="BackgroundImageFix"/>
<feColorMatrix in="SourceAlpha" type="matrix" values="0 0 0 0 0 0 0 0 0 0 0 0 0 0 0 0 0 0 127 0"/>
<feOffset/>
<feGaussianBlur stdDeviation="10"/>
<feColorMatrix type="matrix" values="0 0 0 0 0 0 0 0 0 0 0 0 0 0 0 0 0 0 0.161 0"/>
<feBlend mode="normal" in2="BackgroundImageFix" result="effect1_dropShadow"/>
<feBlend mode="normal" in="SourceGraphic" in2="effect1_dropShadow" result="shape"/>
</filter>
</defs>
</svg>