<svg width="22" height="18" viewBox="0 0 22 18" fill="none" xmlns="http://www.w3.org/2000/svg">
<path d="M19.9996 6.97543H6.82757L10.4136 3.38943C10.7779 3.01222 10.9795 2.50701 10.9749 1.98262C10.9704 1.45823 10.76 0.9566 10.3892 0.585784C10.0184 0.214968 9.51677 0.00463244 8.99237 7.56053e-05C8.46798 -0.00448123 7.96278 0.197107 7.58557 0.561424L0.585573 7.56142C0.210631 7.93648 0 8.4451 0 8.97542C0 9.50575 0.210631 10.0144 0.585573 10.3894L7.58557 17.3894C7.77006 17.5804 7.99076 17.7328 8.23476 17.8376C8.47877 17.9424 8.74121 17.9976 9.00677 17.9999C9.27233 18.0022 9.53569 17.9516 9.78148 17.8511C10.0273 17.7505 10.2506 17.602 10.4384 17.4142C10.6261 17.2264 10.7747 17.0031 10.8752 16.7573C10.9758 16.5115 11.0264 16.2482 11.0241 15.9826C11.0218 15.7171 10.9666 15.4546 10.8618 15.2106C10.757 14.9666 10.6046 14.7459 10.4136 14.5614L6.82757 10.9754H19.9996C20.53 10.9754 21.0387 10.7647 21.4138 10.3896C21.7889 10.0146 21.9996 9.50586 21.9996 8.97542C21.9996 8.44499 21.7889 7.93628 21.4138 7.56121C21.0387 7.18614 20.53 6.97543 19.9996 6.97543Z" fill="white"/>
</svg>