<svg xmlns="http://www.w3.org/2000/svg" width="88" height="46" viewBox="0 0 88 46"><defs><style>.a{fill:#50d2c2;}.b,.c{fill:#fff;}.b{stroke:rgba(241,91,38,0);stroke-linejoin:round;}</style></defs><path class="a" d="M0,0H65A23,23,0,0,1,88,23v0A23,23,0,0,1,65,46H0a0,0,0,0,1,0,0V0A0,0,0,0,1,0,0Z"/><path class="b" d="M1384,535.435a1.437,1.437,0,0,0,1.437,1.437,15.706,15.706,0,0,1,15.687,15.689,1.437,1.437,0,1,0,2.874,0A18.584,18.584,0,0,0,1385.438,534,1.437,1.437,0,0,0,1384,535.435Z" transform="translate(-1321.89 -529.054)"/><path class="c" d="M48,77H34.828l3.586-3.586a2,2,0,0,0-2.828-2.828l-7,7a2,2,0,0,0,0,2.828l7,7a2,2,0,1,0,2.828-2.828L34.828,81H48a2,2,0,0,0,0-4Z" transform="translate(9 -56.025)"/></svg>