<svg width="30" height="30" viewBox="0 0 30 30" fill="none" xmlns="http://www.w3.org/2000/svg">
<path d="M10.0684 22.7954L19.3824 13.4814L19.3824 18.5528C19.3915 19.0771 19.6062 19.5769 19.9802 19.9444C20.3542 20.3121 20.8577 20.518 21.3821 20.518C21.9065 20.518 22.4099 20.312 22.784 19.9444C23.158 19.5769 23.3727 19.0771 23.3818 18.5528L23.3818 8.65327C23.3817 8.12294 23.171 7.61435 22.796 7.23936C22.421 6.86436 21.9124 6.65363 21.3821 6.65359L11.4826 6.65358C11.2171 6.64898 10.9533 6.69727 10.7066 6.7957C10.46 6.89414 10.2354 7.04068 10.046 7.22683C9.85657 7.41299 9.70613 7.63499 9.60339 7.87985C9.50071 8.12481 9.44782 8.38771 9.44782 8.6533C9.44789 8.91882 9.50071 9.18179 9.60345 9.42667C9.70612 9.67161 9.85652 9.89357 10.046 10.0797C10.2353 10.2659 10.46 10.4124 10.7066 10.5109C10.9532 10.6093 11.2171 10.6576 11.4826 10.653L16.554 10.653L7.23995 19.967C6.8649 20.3421 6.65418 20.8508 6.65418 21.3812C6.65411 21.9116 6.86485 22.4203 7.23993 22.7954C7.615 23.1705 8.1237 23.3812 8.65415 23.3812C9.1846 23.3812 9.6933 23.1705 10.0684 22.7954Z" fill="#50D2C2"/>
</svg>