<svg xmlns="http://www.w3.org/2000/svg" width="88" height="46" viewBox="0 0 88 46"><defs><style>.a{fill:#50d2c2;}.b,.c{fill:#fff;}.c{stroke:rgba(241,91,38,0);stroke-linejoin:round;}</style></defs><path class="a" d="M0,0H65A23,23,0,0,1,88,23v0A23,23,0,0,1,65,46H0a0,0,0,0,1,0,0V0A0,0,0,0,1,0,0Z"/><path class="b" d="M1220.77,232.049l4.757-4.762a1.928,1.928,0,1,0-2.725-2.728l-4.757,4.762-4.757-4.762a1.928,1.928,0,1,0-2.725,2.728l4.756,4.762-4.756,4.763a1.928,1.928,0,1,0,2.725,2.728l4.757-4.762,4.757,4.762a1.928,1.928,0,0,0,2.725-2.728Z" transform="translate(-1174.5 -209.05)"/><path class="c" d="M1384,535.435a1.437,1.437,0,0,0,1.437,1.437,15.706,15.706,0,0,1,15.687,15.689,1.437,1.437,0,1,0,2.874,0A18.584,18.584,0,0,0,1385.438,534,1.437,1.437,0,0,0,1384,535.435Z" transform="translate(-1321.89 -529.054)"/></svg>