<svg xmlns="http://www.w3.org/2000/svg" xmlns:xlink="http://www.w3.org/1999/xlink" width="314" height="351" viewBox="0 0 314 351"><defs><style>.a{fill:#fff;}.b{clip-path:url(#c);}.c{fill:#eeede7;}.d{fill:#252525;}.e{filter:url(#a);}</style><filter id="a" x="-192" y="-162" width="698" height="735" filterUnits="userSpaceOnUse"><feOffset dy="30" input="SourceAlpha"/><feGaussianBlur stdDeviation="64" result="b"/><feFlood flood-opacity="0.302"/><feComposite operator="in" in2="b"/><feComposite in="SourceGraphic"/></filter><clipPath id="c"><g class="e" transform="matrix(1, 0, 0, 1, 0, 0)"><rect class="a" width="314" height="351" rx="20" transform="translate(31 309)"/></g></clipPath></defs><g class="b" transform="translate(-31 -309)"><rect class="c" width="60" height="60" rx="20" transform="translate(304 290)"/></g><path class="d" d="M1220.77,232.049l4.757-4.762a1.928,1.928,0,1,0-2.725-2.728l-4.757,4.762-4.757-4.762a1.928,1.928,0,1,0-2.725,2.728l4.756,4.762-4.756,4.763a1.928,1.928,0,1,0,2.725,2.728l4.757-4.762,4.757,4.762a1.928,1.928,0,0,0,2.725-2.728Z" transform="translate(-924.091 -211.994)"/></svg>