<svg xmlns="http://www.w3.org/2000/svg" width="21" height="21" viewBox="0 0 21 21"><defs><style>.a{fill:#efbc01;}.b{fill:#fff;}</style></defs><circle class="a" cx="10.5" cy="10.5" r="10.5"/><path class="b" d="M1.6,11.973a.864.864,0,0,1,0-1.727H9.373a.864.864,0,0,1,0,1.727Zm0-2.633A.849.849,0,0,1,.762,8.6L.009,3.3a.868.868,0,0,1,.456-.9.828.828,0,0,1,.974.161L3.092,4.258,4.715.513a.835.835,0,0,1,1.541,0L7.88,4.258,9.531,2.566a.827.827,0,0,1,.975-.161.867.867,0,0,1,.455.9l-.753,5.3a.849.849,0,0,1-.834.739Z" transform="translate(5 4)"/></svg>