<svg width="185" height="76" viewBox="0 0 185 76" fill="none" xmlns="http://www.w3.org/2000/svg">
<path d="M155 8H35C18.4315 8 5 21.4315 5 38C5 54.5685 18.4315 68 35 68H155C171.569 68 185 54.5685 185 38C185 21.4315 171.569 8 155 8Z" fill="#50D2C2"/>
<path d="M71.8125 30.0566H68.1152V33.0801H72.4102V34H66.9902V25.4688H72.3516V26.3945H68.1152V29.1367H71.8125V30.0566ZM74.666 27.6602L74.7012 28.457C75.1855 27.8477 75.8184 27.543 76.5996 27.543C77.9395 27.543 78.6152 28.2988 78.627 29.8105V34H77.543V29.8047C77.5391 29.3477 77.4336 29.0098 77.2266 28.791C77.0234 28.5723 76.7051 28.4629 76.2715 28.4629C75.9199 28.4629 75.6113 28.5566 75.3457 28.7441C75.0801 28.9316 74.873 29.1777 74.7246 29.4824V34H73.6406V27.6602H74.666ZM81.7324 26.125V27.6602H82.916V28.498H81.7324V32.4297C81.7324 32.6836 81.7852 32.875 81.8906 33.0039C81.9961 33.1289 82.1758 33.1914 82.4297 33.1914C82.5547 33.1914 82.7266 33.168 82.9453 33.1211V34C82.6602 34.0781 82.3828 34.1172 82.1133 34.1172C81.6289 34.1172 81.2637 33.9707 81.0176 33.6777C80.7715 33.3848 80.6484 32.9688 80.6484 32.4297V28.498H79.4941V27.6602H80.6484V26.125H81.7324ZM87.252 28.6328C87.0879 28.6055 86.9102 28.5918 86.7188 28.5918C86.0078 28.5918 85.5254 28.8945 85.2715 29.5V34H84.1875V27.6602H85.2422L85.2598 28.3926C85.6152 27.8262 86.1191 27.543 86.7715 27.543C86.9824 27.543 87.1426 27.5703 87.252 27.625V28.6328ZM91.9336 34C91.8711 33.875 91.8203 33.6523 91.7812 33.332C91.2773 33.8555 90.6758 34.1172 89.9766 34.1172C89.3516 34.1172 88.8379 33.9414 88.4355 33.5898C88.0371 33.2344 87.8379 32.7852 87.8379 32.2422C87.8379 31.582 88.0879 31.0703 88.5879 30.707C89.0918 30.3398 89.7988 30.1562 90.709 30.1562H91.7637V29.6582C91.7637 29.2793 91.6504 28.9785 91.4238 28.7559C91.1973 28.5293 90.8633 28.416 90.4219 28.416C90.0352 28.416 89.7109 28.5137 89.4492 28.709C89.1875 28.9043 89.0566 29.1406 89.0566 29.418H87.9668C87.9668 29.1016 88.0781 28.7969 88.3008 28.5039C88.5273 28.207 88.832 27.9727 89.2148 27.8008C89.6016 27.6289 90.0254 27.543 90.4863 27.543C91.2168 27.543 91.7891 27.7266 92.2031 28.0938C92.6172 28.457 92.832 28.959 92.8477 29.5996V32.5176C92.8477 33.0996 92.9219 33.5625 93.0703 33.9062V34H91.9336ZM90.1348 33.1738C90.4746 33.1738 90.7969 33.0859 91.1016 32.9102C91.4062 32.7344 91.627 32.5059 91.7637 32.2246V30.9238H90.9141C89.5859 30.9238 88.9219 31.3125 88.9219 32.0898C88.9219 32.4297 89.0352 32.6953 89.2617 32.8867C89.4883 33.0781 89.7793 33.1738 90.1348 33.1738ZM97.6113 28.6328C97.4473 28.6055 97.2695 28.5918 97.0781 28.5918C96.3672 28.5918 95.8848 28.8945 95.6309 29.5V34H94.5469V27.6602H95.6016L95.6191 28.3926C95.9746 27.8262 96.4785 27.543 97.1309 27.543C97.3418 27.543 97.502 27.5703 97.6113 27.625V28.6328ZM104.133 33.2324C104.52 33.2324 104.857 33.1152 105.146 32.8809C105.436 32.6465 105.596 32.3535 105.627 32.002H106.652C106.633 32.3652 106.508 32.7109 106.277 33.0391C106.047 33.3672 105.738 33.6289 105.352 33.8242C104.969 34.0195 104.562 34.1172 104.133 34.1172C103.27 34.1172 102.582 33.8301 102.07 33.2559C101.562 32.6777 101.309 31.8887 101.309 30.8887V30.707C101.309 30.0898 101.422 29.541 101.648 29.0605C101.875 28.5801 102.199 28.207 102.621 27.9414C103.047 27.6758 103.549 27.543 104.127 27.543C104.838 27.543 105.428 27.7559 105.896 28.1816C106.369 28.6074 106.621 29.1602 106.652 29.8398H105.627C105.596 29.4297 105.439 29.0938 105.158 28.832C104.881 28.5664 104.537 28.4336 104.127 28.4336C103.576 28.4336 103.148 28.6328 102.844 29.0312C102.543 29.4258 102.393 29.998 102.393 30.748V30.9531C102.393 31.6836 102.543 32.2461 102.844 32.6406C103.145 33.0352 103.574 33.2324 104.133 33.2324ZM107.584 30.7715C107.584 30.1504 107.705 29.5918 107.947 29.0957C108.193 28.5996 108.533 28.2168 108.967 27.9473C109.404 27.6777 109.902 27.543 110.461 27.543C111.324 27.543 112.021 27.8418 112.553 28.4395C113.088 29.0371 113.355 29.832 113.355 30.8242V30.9004C113.355 31.5176 113.236 32.0723 112.998 32.5645C112.764 33.0527 112.426 33.4336 111.984 33.707C111.547 33.9805 111.043 34.1172 110.473 34.1172C109.613 34.1172 108.916 33.8184 108.381 33.2207C107.85 32.623 107.584 31.832 107.584 30.8477V30.7715ZM108.674 30.9004C108.674 31.6035 108.836 32.168 109.16 32.5938C109.488 33.0195 109.926 33.2324 110.473 33.2324C111.023 33.2324 111.461 33.0176 111.785 32.5879C112.109 32.1543 112.271 31.5488 112.271 30.7715C112.271 30.0762 112.105 29.5137 111.773 29.084C111.445 28.6504 111.008 28.4336 110.461 28.4336C109.926 28.4336 109.494 28.6465 109.166 29.0723C108.838 29.498 108.674 30.1074 108.674 30.9004ZM115.734 27.6602L115.764 28.3633C116.229 27.8164 116.855 27.543 117.645 27.543C118.531 27.543 119.135 27.8828 119.455 28.5625C119.666 28.2578 119.939 28.0117 120.275 27.8242C120.615 27.6367 121.016 27.543 121.477 27.543C122.867 27.543 123.574 28.2793 123.598 29.752V34H122.514V29.8164C122.514 29.3633 122.41 29.0254 122.203 28.8027C121.996 28.5762 121.648 28.4629 121.16 28.4629C120.758 28.4629 120.424 28.584 120.158 28.8262C119.893 29.0645 119.738 29.3867 119.695 29.793V34H118.605V29.8457C118.605 28.9238 118.154 28.4629 117.252 28.4629C116.541 28.4629 116.055 28.7656 115.793 29.3711V34H114.709V27.6602H115.734ZM73.8594 46.0703H69.3594V49.1172H74.6406V51H67.0156V39.625H74.625V41.5234H69.3594V44.2344H73.8594V46.0703ZM77.9844 42.5469L78.0547 43.4922C78.6536 42.7578 79.4635 42.3906 80.4844 42.3906C81.5729 42.3906 82.3203 42.8203 82.7266 43.6797C83.3203 42.8203 84.1667 42.3906 85.2656 42.3906C86.1823 42.3906 86.8646 42.6589 87.3125 43.1953C87.7604 43.7266 87.9844 44.5286 87.9844 45.6016V51H85.7188V45.6094C85.7188 45.1302 85.625 44.7812 85.4375 44.5625C85.25 44.3385 84.9193 44.2266 84.4453 44.2266C83.7682 44.2266 83.2995 44.5495 83.0391 45.1953L83.0469 51H80.7891V45.6172C80.7891 45.1276 80.6927 44.7734 80.5 44.5547C80.3073 44.3359 79.9792 44.2266 79.5156 44.2266C78.875 44.2266 78.4115 44.4922 78.125 45.0234V51H75.8672V42.5469H77.9844ZM94.625 51C94.5208 50.7969 94.4453 50.5443 94.3984 50.2422C93.8516 50.8516 93.1406 51.1562 92.2656 51.1562C91.4375 51.1562 90.75 50.9167 90.2031 50.4375C89.6615 49.9583 89.3906 49.3542 89.3906 48.625C89.3906 47.7292 89.7214 47.0417 90.3828 46.5625C91.0495 46.0833 92.0104 45.8411 93.2656 45.8359H94.3047V45.3516C94.3047 44.9609 94.2031 44.6484 94 44.4141C93.8021 44.1797 93.487 44.0625 93.0547 44.0625C92.6745 44.0625 92.375 44.1536 92.1562 44.3359C91.9427 44.5182 91.8359 44.7682 91.8359 45.0859H89.5781C89.5781 44.5964 89.7292 44.1432 90.0312 43.7266C90.3333 43.3099 90.7604 42.9844 91.3125 42.75C91.8646 42.5104 92.4844 42.3906 93.1719 42.3906C94.2135 42.3906 95.0391 42.6536 95.6484 43.1797C96.263 43.7005 96.5703 44.4349 96.5703 45.3828V49.0469C96.5755 49.849 96.6875 50.4557 96.9062 50.8672V51H94.625ZM92.7578 49.4297C93.0911 49.4297 93.3984 49.3568 93.6797 49.2109C93.9609 49.0599 94.1693 48.8594 94.3047 48.6094V47.1562H93.4609C92.3307 47.1562 91.7292 47.5469 91.6562 48.3281L91.6484 48.4609C91.6484 48.7422 91.7474 48.974 91.9453 49.1562C92.1432 49.3385 92.4141 49.4297 92.7578 49.4297ZM100.688 51H98.4219V42.5469H100.688V51ZM98.2891 40.3594C98.2891 40.0208 98.401 39.7422 98.625 39.5234C98.8542 39.3047 99.1641 39.1953 99.5547 39.1953C99.9401 39.1953 100.247 39.3047 100.477 39.5234C100.706 39.7422 100.82 40.0208 100.82 40.3594C100.82 40.7031 100.703 40.9844 100.469 41.2031C100.24 41.4219 99.9349 41.5312 99.5547 41.5312C99.1745 41.5312 98.8672 41.4219 98.6328 41.2031C98.4036 40.9844 98.2891 40.7031 98.2891 40.3594ZM104.938 51H102.672V39H104.938V51Z" fill="white"/>
<g filter="url(#filter0_d)">
<path d="M38 56C47.9411 56 56 47.9411 56 38C56 28.0589 47.9411 20 38 20C28.0589 20 20 28.0589 20 38C20 47.9411 28.0589 56 38 56Z" fill="#50D2C2"/>
</g>
<path d="M46.504 36.072C46.5075 35.8034 46.4403 35.5386 46.3092 35.3041C46.1781 35.0696 45.9877 34.8737 45.757 34.736L38.25 31L30.75 34.736C30.5245 34.8796 30.3381 35.0767 30.2072 35.3098C30.0763 35.5429 30.0052 35.8047 30 36.072V43.572C30.0011 43.9886 30.167 44.3878 30.4616 44.6824C30.7562 44.977 31.1554 45.1429 31.572 45.144H44.932C45.3486 45.1429 45.7478 44.977 46.0424 44.6824C46.337 44.3878 46.5029 43.9886 46.504 43.572V36.072ZM38.25 39.841L31.939 35.715L38.25 32.572L44.563 35.716L38.25 39.841Z" fill="white"/>
<path d="M155 19.437C155 19.8181 155.151 20.1836 155.421 20.4531C155.69 20.7226 156.056 20.874 156.437 20.874C160.596 20.879 164.584 22.5336 167.525 25.4749C170.465 28.4161 172.12 32.4037 172.124 36.5629C172.124 36.944 172.275 37.3096 172.545 37.579C172.814 37.8485 173.18 37.9999 173.561 37.9999C173.942 37.9999 174.308 37.8485 174.577 37.579C174.847 37.3096 174.998 36.944 174.998 36.5629C174.992 31.6423 173.035 26.925 169.555 23.4454C166.076 19.9659 161.359 18.0083 156.438 18.002C156.057 18.0017 155.692 18.1527 155.422 18.4218C155.152 18.6908 155.001 19.056 155 19.437V19.437Z" fill="white"/>
<defs>
<filter id="filter0_d" x="0" y="0" width="76" height="76" filterUnits="userSpaceOnUse" color-interpolation-filters="sRGB">
<feFlood flood-opacity="0" result="BackgroundImageFix"/>
<feColorMatrix in="SourceAlpha" type="matrix" values="0 0 0 0 0 0 0 0 0 0 0 0 0 0 0 0 0 0 127 0"/>
<feOffset/>
<feGaussianBlur stdDeviation="10"/>
<feColorMatrix type="matrix" values="0 0 0 0 0.235294 0 0 0 0 0.658824 0 0 0 0 0.607843 0 0 0 1 0"/>
<feBlend mode="normal" in2="BackgroundImageFix" result="effect1_dropShadow"/>
<feBlend mode="normal" in="SourceGraphic" in2="effect1_dropShadow" result="shape"/>
</filter>
</defs>
</svg>