<svg xmlns="http://www.w3.org/2000/svg" xmlns:xlink="http://www.w3.org/1999/xlink" width="195" height="96" viewBox="0 0 195 96"><defs><style>.a{fill:#50d2c2;}.b,.d,.e{fill:#fff;}.b{font-size:12px;font-family:SFProDisplay-Medium, SF Pro Display;font-weight:500;}.c{font-size:16px;font-family:SFProDisplay-Bold, SF Pro Display;font-weight:700;}.e{stroke:rgba(241,91,38,0);stroke-linejoin:round;}.f{filter:url(#a);}</style><filter id="a" x="0" y="0" width="96" height="96" filterUnits="userSpaceOnUse"><feOffset input="SourceAlpha"/><feGaussianBlur stdDeviation="10" result="b"/><feFlood flood-color="#3ca89b"/><feComposite operator="in" in2="b"/><feComposite in="SourceGraphic"/></filter></defs><g transform="translate(-945 -348)"><rect class="a" width="180" height="60" rx="30" transform="translate(960 366)"/><g transform="translate(965 378)"><text class="b" transform="translate(56 14)"><tspan x="0" y="0">Entrar com</tspan><tspan class="c"><tspan x="0" y="16">Email</tspan></tspan></text><g class="f" transform="matrix(1, 0, 0, 1, -20, -30)"><circle class="a" cx="18" cy="18" r="18" transform="translate(30 30)"/></g><path class="d" d="M18.754,9.572a1.533,1.533,0,0,0-.747-1.336L10.5,4.5,3,8.236A1.621,1.621,0,0,0,2.25,9.572v7.5a1.576,1.576,0,0,0,1.572,1.572h13.36a1.576,1.576,0,0,0,1.572-1.572ZM10.5,13.341,4.189,9.215,10.5,6.072l6.313,3.144Z" transform="translate(17.75 6.5)"/></g><path class="e" d="M1384,535.435a1.437,1.437,0,0,0,1.437,1.437,15.706,15.706,0,0,1,15.687,15.689,1.437,1.437,0,1,0,2.874,0A18.584,18.584,0,0,0,1385.438,534,1.437,1.437,0,0,0,1384,535.435Z" transform="translate(-274 -157.998)"/></g></svg>