<svg xmlns="http://www.w3.org/2000/svg" xmlns:xlink="http://www.w3.org/1999/xlink" width="195" height="96" viewBox="0 0 195 96"><defs><style>.a{fill:#3b5998;}.b,.e,.f{fill:#fff;}.b{font-size:12px;font-family:SFProDisplay-Medium, SF Pro Display;font-weight:500;}.c{font-size:16px;font-family:SFProDisplay-Bold, SF Pro Display;font-weight:700;}.d{fill:#4263a7;}.f{stroke:rgba(241,91,38,0);stroke-linejoin:round;}.g{filter:url(#a);}</style><filter id="a" x="0" y="0" width="96" height="96" filterUnits="userSpaceOnUse"><feOffset input="SourceAlpha"/><feGaussianBlur stdDeviation="10" result="b"/><feFlood flood-opacity="0.161"/><feComposite operator="in" in2="b"/><feComposite in="SourceGraphic"/></filter></defs><g transform="translate(15 18)"><rect class="a" width="180" height="60" rx="30"/><g transform="translate(15 12)"><g transform="translate(46 3)"><text class="b" transform="translate(0 11)"><tspan x="0" y="0">Entrar com</tspan><tspan class="c"><tspan x="0" y="16">Facebook</tspan></tspan></text></g><g class="g" transform="matrix(1, 0, 0, 1, -30, -30)"><circle class="d" cx="18" cy="18" r="18" transform="translate(30 30)"/></g><path class="e" d="M10.58,10.083l.5-3.244H7.966V4.734A1.622,1.622,0,0,1,9.795,2.981H11.21V.219A17.256,17.256,0,0,0,8.7,0C6.134,0,4.459,1.554,4.459,4.366V6.839H1.609v3.244H4.459v7.842H7.966V10.083Z" transform="translate(11.391 9)"/></g><path class="f" d="M1384,535.435a1.437,1.437,0,0,0,1.437,1.437,15.706,15.706,0,0,1,15.687,15.689,1.437,1.437,0,1,0,2.874,0A18.584,18.584,0,0,0,1385.438,534,1.437,1.437,0,0,0,1384,535.435Z" transform="translate(-1234 -523.998)"/></g></svg>