<svg width="185" height="76" viewBox="0 0 185 76" fill="none" xmlns="http://www.w3.org/2000/svg">
<path d="M155 8H35C18.4315 8 5 21.4315 5 38C5 54.5685 18.4315 68 35 68H155C171.569 68 185 54.5685 185 38C185 21.4315 171.569 8 155 8Z" fill="#3B5998"/>
<path d="M71.8125 30.0566H68.1152V33.0801H72.4102V34H66.9902V25.4688H72.3516V26.3945H68.1152V29.1367H71.8125V30.0566ZM74.666 27.6602L74.7012 28.457C75.1855 27.8477 75.8184 27.543 76.5996 27.543C77.9395 27.543 78.6152 28.2988 78.627 29.8105V34H77.543V29.8047C77.5391 29.3477 77.4336 29.0098 77.2266 28.791C77.0234 28.5723 76.7051 28.4629 76.2715 28.4629C75.9199 28.4629 75.6113 28.5566 75.3457 28.7441C75.0801 28.9316 74.873 29.1777 74.7246 29.4824V34H73.6406V27.6602H74.666ZM81.7324 26.125V27.6602H82.916V28.498H81.7324V32.4297C81.7324 32.6836 81.7852 32.875 81.8906 33.0039C81.9961 33.1289 82.1758 33.1914 82.4297 33.1914C82.5547 33.1914 82.7266 33.168 82.9453 33.1211V34C82.6602 34.0781 82.3828 34.1172 82.1133 34.1172C81.6289 34.1172 81.2637 33.9707 81.0176 33.6777C80.7715 33.3848 80.6484 32.9688 80.6484 32.4297V28.498H79.4941V27.6602H80.6484V26.125H81.7324ZM87.252 28.6328C87.0879 28.6055 86.9102 28.5918 86.7188 28.5918C86.0078 28.5918 85.5254 28.8945 85.2715 29.5V34H84.1875V27.6602H85.2422L85.2598 28.3926C85.6152 27.8262 86.1191 27.543 86.7715 27.543C86.9824 27.543 87.1426 27.5703 87.252 27.625V28.6328ZM91.9336 34C91.8711 33.875 91.8203 33.6523 91.7812 33.332C91.2773 33.8555 90.6758 34.1172 89.9766 34.1172C89.3516 34.1172 88.8379 33.9414 88.4355 33.5898C88.0371 33.2344 87.8379 32.7852 87.8379 32.2422C87.8379 31.582 88.0879 31.0703 88.5879 30.707C89.0918 30.3398 89.7988 30.1562 90.709 30.1562H91.7637V29.6582C91.7637 29.2793 91.6504 28.9785 91.4238 28.7559C91.1973 28.5293 90.8633 28.416 90.4219 28.416C90.0352 28.416 89.7109 28.5137 89.4492 28.709C89.1875 28.9043 89.0566 29.1406 89.0566 29.418H87.9668C87.9668 29.1016 88.0781 28.7969 88.3008 28.5039C88.5273 28.207 88.832 27.9727 89.2148 27.8008C89.6016 27.6289 90.0254 27.543 90.4863 27.543C91.2168 27.543 91.7891 27.7266 92.2031 28.0938C92.6172 28.457 92.832 28.959 92.8477 29.5996V32.5176C92.8477 33.0996 92.9219 33.5625 93.0703 33.9062V34H91.9336ZM90.1348 33.1738C90.4746 33.1738 90.7969 33.0859 91.1016 32.9102C91.4062 32.7344 91.627 32.5059 91.7637 32.2246V30.9238H90.9141C89.5859 30.9238 88.9219 31.3125 88.9219 32.0898C88.9219 32.4297 89.0352 32.6953 89.2617 32.8867C89.4883 33.0781 89.7793 33.1738 90.1348 33.1738ZM97.6113 28.6328C97.4473 28.6055 97.2695 28.5918 97.0781 28.5918C96.3672 28.5918 95.8848 28.8945 95.6309 29.5V34H94.5469V27.6602H95.6016L95.6191 28.3926C95.9746 27.8262 96.4785 27.543 97.1309 27.543C97.3418 27.543 97.502 27.5703 97.6113 27.625V28.6328ZM104.133 33.2324C104.52 33.2324 104.857 33.1152 105.146 32.8809C105.436 32.6465 105.596 32.3535 105.627 32.002H106.652C106.633 32.3652 106.508 32.7109 106.277 33.0391C106.047 33.3672 105.738 33.6289 105.352 33.8242C104.969 34.0195 104.562 34.1172 104.133 34.1172C103.27 34.1172 102.582 33.8301 102.07 33.2559C101.562 32.6777 101.309 31.8887 101.309 30.8887V30.707C101.309 30.0898 101.422 29.541 101.648 29.0605C101.875 28.5801 102.199 28.207 102.621 27.9414C103.047 27.6758 103.549 27.543 104.127 27.543C104.838 27.543 105.428 27.7559 105.896 28.1816C106.369 28.6074 106.621 29.1602 106.652 29.8398H105.627C105.596 29.4297 105.439 29.0938 105.158 28.832C104.881 28.5664 104.537 28.4336 104.127 28.4336C103.576 28.4336 103.148 28.6328 102.844 29.0312C102.543 29.4258 102.393 29.998 102.393 30.748V30.9531C102.393 31.6836 102.543 32.2461 102.844 32.6406C103.145 33.0352 103.574 33.2324 104.133 33.2324ZM107.584 30.7715C107.584 30.1504 107.705 29.5918 107.947 29.0957C108.193 28.5996 108.533 28.2168 108.967 27.9473C109.404 27.6777 109.902 27.543 110.461 27.543C111.324 27.543 112.021 27.8418 112.553 28.4395C113.088 29.0371 113.355 29.832 113.355 30.8242V30.9004C113.355 31.5176 113.236 32.0723 112.998 32.5645C112.764 33.0527 112.426 33.4336 111.984 33.707C111.547 33.9805 111.043 34.1172 110.473 34.1172C109.613 34.1172 108.916 33.8184 108.381 33.2207C107.85 32.623 107.584 31.832 107.584 30.8477V30.7715ZM108.674 30.9004C108.674 31.6035 108.836 32.168 109.16 32.5938C109.488 33.0195 109.926 33.2324 110.473 33.2324C111.023 33.2324 111.461 33.0176 111.785 32.5879C112.109 32.1543 112.271 31.5488 112.271 30.7715C112.271 30.0762 112.105 29.5137 111.773 29.084C111.445 28.6504 111.008 28.4336 110.461 28.4336C109.926 28.4336 109.494 28.6465 109.166 29.0723C108.838 29.498 108.674 30.1074 108.674 30.9004ZM115.734 27.6602L115.764 28.3633C116.229 27.8164 116.855 27.543 117.645 27.543C118.531 27.543 119.135 27.8828 119.455 28.5625C119.666 28.2578 119.939 28.0117 120.275 27.8242C120.615 27.6367 121.016 27.543 121.477 27.543C122.867 27.543 123.574 28.2793 123.598 29.752V34H122.514V29.8164C122.514 29.3633 122.41 29.0254 122.203 28.8027C121.996 28.5762 121.648 28.4629 121.16 28.4629C120.758 28.4629 120.424 28.584 120.158 28.8262C119.893 29.0645 119.738 29.3867 119.695 29.793V34H118.605V29.8457C118.605 28.9238 118.154 28.4629 117.252 28.4629C116.541 28.4629 116.055 28.7656 115.793 29.3711V34H114.709V27.6602H115.734ZM73.8594 46.3516H69.3594V51H67.0156V39.625H74.4219V41.5234H69.3594V44.4609H73.8594V46.3516ZM80.2656 51C80.1615 50.7969 80.0859 50.5443 80.0391 50.2422C79.4922 50.8516 78.7812 51.1562 77.9062 51.1562C77.0781 51.1562 76.3906 50.9167 75.8438 50.4375C75.3021 49.9583 75.0312 49.3542 75.0312 48.625C75.0312 47.7292 75.362 47.0417 76.0234 46.5625C76.6901 46.0833 77.651 45.8411 78.9062 45.8359H79.9453V45.3516C79.9453 44.9609 79.8438 44.6484 79.6406 44.4141C79.4427 44.1797 79.1276 44.0625 78.6953 44.0625C78.3151 44.0625 78.0156 44.1536 77.7969 44.3359C77.5833 44.5182 77.4766 44.7682 77.4766 45.0859H75.2188C75.2188 44.5964 75.3698 44.1432 75.6719 43.7266C75.974 43.3099 76.401 42.9844 76.9531 42.75C77.5052 42.5104 78.125 42.3906 78.8125 42.3906C79.8542 42.3906 80.6797 42.6536 81.2891 43.1797C81.9036 43.7005 82.2109 44.4349 82.2109 45.3828V49.0469C82.2161 49.849 82.3281 50.4557 82.5469 50.8672V51H80.2656ZM78.3984 49.4297C78.7318 49.4297 79.0391 49.3568 79.3203 49.2109C79.6016 49.0599 79.8099 48.8594 79.9453 48.6094V47.1562H79.1016C77.9714 47.1562 77.3698 47.5469 77.2969 48.3281L77.2891 48.4609C77.2891 48.7422 77.388 48.974 77.5859 49.1562C77.7839 49.3385 78.0547 49.4297 78.3984 49.4297ZM87.4609 49.3359C87.8776 49.3359 88.2161 49.2214 88.4766 48.9922C88.737 48.763 88.8724 48.4583 88.8828 48.0781H91C90.9948 48.651 90.8385 49.1771 90.5312 49.6562C90.224 50.1302 89.8021 50.5 89.2656 50.7656C88.7344 51.026 88.1458 51.1562 87.5 51.1562C86.2917 51.1562 85.3385 50.7734 84.6406 50.0078C83.9427 49.237 83.5938 48.1745 83.5938 46.8203V46.6719C83.5938 45.3698 83.9401 44.3307 84.6328 43.5547C85.3255 42.7786 86.276 42.3906 87.4844 42.3906C88.5417 42.3906 89.388 42.6927 90.0234 43.2969C90.6641 43.8958 90.9896 44.6953 91 45.6953H88.8828C88.8724 45.2578 88.737 44.9036 88.4766 44.6328C88.2161 44.3568 87.8724 44.2188 87.4453 44.2188C86.9193 44.2188 86.5208 44.4115 86.25 44.7969C85.9844 45.1771 85.8516 45.7969 85.8516 46.6562V46.8906C85.8516 47.7604 85.9844 48.3854 86.25 48.7656C86.5156 49.1458 86.9193 49.3359 87.4609 49.3359ZM96.1797 51.1562C94.9401 51.1562 93.9297 50.776 93.1484 50.0156C92.3724 49.2552 91.9844 48.2422 91.9844 46.9766V46.7578C91.9844 45.9089 92.1484 45.151 92.4766 44.4844C92.8047 43.8125 93.2682 43.2969 93.8672 42.9375C94.4714 42.5729 95.1589 42.3906 95.9297 42.3906C97.0859 42.3906 97.9948 42.7552 98.6562 43.4844C99.3229 44.2135 99.6562 45.2474 99.6562 46.5859V47.5078H94.2734C94.3464 48.0599 94.5651 48.5026 94.9297 48.8359C95.2995 49.1693 95.7656 49.3359 96.3281 49.3359C97.1979 49.3359 97.8776 49.0208 98.3672 48.3906L99.4766 49.6328C99.138 50.112 98.6797 50.487 98.1016 50.7578C97.5234 51.0234 96.8828 51.1562 96.1797 51.1562ZM95.9219 44.2188C95.474 44.2188 95.1094 44.3698 94.8281 44.6719C94.5521 44.974 94.375 45.4062 94.2969 45.9688H97.4375V45.7891C97.4271 45.2891 97.2917 44.9036 97.0312 44.6328C96.7708 44.3568 96.401 44.2188 95.9219 44.2188ZM108.562 46.8516C108.562 48.2057 108.273 49.263 107.695 50.0234C107.117 50.7786 106.31 51.1562 105.273 51.1562C104.357 51.1562 103.625 50.8047 103.078 50.1016L102.977 51H100.945V39H103.203V43.3047C103.724 42.6953 104.409 42.3906 105.258 42.3906C106.289 42.3906 107.096 42.7708 107.68 43.5312C108.268 44.2865 108.562 45.3516 108.562 46.7266V46.8516ZM106.305 46.6875C106.305 45.8333 106.169 45.2109 105.898 44.8203C105.628 44.4245 105.224 44.2266 104.688 44.2266C103.969 44.2266 103.474 44.5208 103.203 45.1094V48.4453C103.479 49.0391 103.979 49.3359 104.703 49.3359C105.432 49.3359 105.911 48.9766 106.141 48.2578C106.25 47.9141 106.305 47.3906 106.305 46.6875ZM109.609 46.6953C109.609 45.8568 109.771 45.1094 110.094 44.4531C110.417 43.7969 110.88 43.2891 111.484 42.9297C112.094 42.5703 112.799 42.3906 113.602 42.3906C114.742 42.3906 115.672 42.7396 116.391 43.4375C117.115 44.1354 117.518 45.0833 117.602 46.2812L117.617 46.8594C117.617 48.1562 117.255 49.1979 116.531 49.9844C115.807 50.7656 114.836 51.1562 113.617 51.1562C112.398 51.1562 111.424 50.7656 110.695 49.9844C109.971 49.2031 109.609 48.1406 109.609 46.7969V46.6953ZM111.867 46.8594C111.867 47.6615 112.018 48.276 112.32 48.7031C112.622 49.125 113.055 49.3359 113.617 49.3359C114.164 49.3359 114.591 49.1276 114.898 48.7109C115.206 48.2891 115.359 47.6172 115.359 46.6953C115.359 45.9089 115.206 45.2995 114.898 44.8672C114.591 44.4349 114.159 44.2188 113.602 44.2188C113.049 44.2188 112.622 44.4349 112.32 44.8672C112.018 45.2943 111.867 45.9583 111.867 46.8594ZM118.656 46.6953C118.656 45.8568 118.818 45.1094 119.141 44.4531C119.464 43.7969 119.927 43.2891 120.531 42.9297C121.141 42.5703 121.846 42.3906 122.648 42.3906C123.789 42.3906 124.719 42.7396 125.438 43.4375C126.161 44.1354 126.565 45.0833 126.648 46.2812L126.664 46.8594C126.664 48.1562 126.302 49.1979 125.578 49.9844C124.854 50.7656 123.883 51.1562 122.664 51.1562C121.445 51.1562 120.471 50.7656 119.742 49.9844C119.018 49.2031 118.656 48.1406 118.656 46.7969V46.6953ZM120.914 46.8594C120.914 47.6615 121.065 48.276 121.367 48.7031C121.669 49.125 122.102 49.3359 122.664 49.3359C123.211 49.3359 123.638 49.1276 123.945 48.7109C124.253 48.2891 124.406 47.6172 124.406 46.6953C124.406 45.9089 124.253 45.2995 123.945 44.8672C123.638 44.4349 123.206 44.2188 122.648 44.2188C122.096 44.2188 121.669 44.4349 121.367 44.8672C121.065 45.2943 120.914 45.9583 120.914 46.8594ZM131.125 47.6094L130.312 48.4219V51H128.055V39H130.312V45.6484L130.75 45.0859L132.914 42.5469H135.625L132.57 46.0703L135.891 51H133.297L131.125 47.6094Z" fill="white"/>
<g filter="url(#filter0_d)">
<path d="M38 56C47.9411 56 56 47.9411 56 38C56 28.0589 47.9411 20 38 20C28.0589 20 20 28.0589 20 38C20 47.9411 28.0589 56 38 56Z" fill="#4263A7"/>
</g>
<path d="M41.971 39.083L42.471 35.839H39.357V33.734C39.3352 33.4917 39.3683 33.2476 39.4536 33.0198C39.539 32.7919 39.6745 32.5862 39.8502 32.4179C40.0258 32.2495 40.2371 32.1229 40.4683 32.0472C40.6995 31.9716 40.9448 31.949 41.186 31.981H42.601V29.219C41.7708 29.0849 40.9319 29.0117 40.091 29C37.525 29 35.85 30.554 35.85 33.366V35.839H33V39.083H35.85V46.925H39.357V39.083H41.971Z" fill="white"/>
<path d="M155 19.437C155 19.8181 155.151 20.1836 155.421 20.4531C155.69 20.7226 156.056 20.874 156.437 20.874C160.596 20.879 164.584 22.5336 167.525 25.4749C170.465 28.4161 172.12 32.4037 172.124 36.5629C172.124 36.944 172.275 37.3096 172.545 37.579C172.814 37.8485 173.18 37.9999 173.561 37.9999C173.942 37.9999 174.308 37.8485 174.577 37.579C174.847 37.3096 174.998 36.944 174.998 36.5629C174.992 31.6423 173.035 26.925 169.555 23.4454C166.076 19.9659 161.359 18.0083 156.438 18.002C156.057 18.0017 155.692 18.1527 155.422 18.4218C155.152 18.6908 155.001 19.056 155 19.437V19.437Z" fill="white"/>
<defs>
<filter id="filter0_d" x="0" y="0" width="76" height="76" filterUnits="userSpaceOnUse" color-interpolation-filters="sRGB">
<feFlood flood-opacity="0" result="BackgroundImageFix"/>
<feColorMatrix in="SourceAlpha" type="matrix" values="0 0 0 0 0 0 0 0 0 0 0 0 0 0 0 0 0 0 127 0"/>
<feOffset/>
<feGaussianBlur stdDeviation="10"/>
<feColorMatrix type="matrix" values="0 0 0 0 0 0 0 0 0 0 0 0 0 0 0 0 0 0 0.161 0"/>
<feBlend mode="normal" in2="BackgroundImageFix" result="effect1_dropShadow"/>
<feBlend mode="normal" in="SourceGraphic" in2="effect1_dropShadow" result="shape"/>
</filter>
</defs>
</svg>