<svg xmlns="http://www.w3.org/2000/svg" width="20" height="17.999" viewBox="0 0 20 17.999"><defs><style>.a{fill:#fff;}</style></defs><path class="a" d="M10.029,18a1.34,1.34,0,0,1-.7-.2,28.625,28.625,0,0,1-4.811-3.819A18.8,18.8,0,0,1,1.4,10.044,9.627,9.627,0,0,1,0,5.273,5.041,5.041,0,0,1,5.266,0c2.2,0,3.979,1.729,4.934,2.658C11.064,1.793,12.856,0,15.084,0c3,0,4.884,2.022,4.916,5.277a9.614,9.614,0,0,1-1.395,4.753,18.9,18.9,0,0,1-3.1,3.936A29.394,29.394,0,0,1,10.733,17.8,1.344,1.344,0,0,1,10.029,18ZM5.236,1.318A3.735,3.735,0,0,0,1.3,5.273c0,3.155,2.359,6.093,4.338,8A28.727,28.727,0,0,0,9.978,16.7,28.8,28.8,0,0,0,14.3,13.255c1.973-1.916,4.323-4.855,4.314-7.981,0-2.514-1.295-3.956-3.552-3.956-1.666,0-3.176,1.506-4.079,2.406-.391.39-.672.67-.806.67s-.421-.281-.819-.67C8.442,2.824,6.9,1.318,5.236,1.318Z" transform="translate(0 0)"/></svg>