<svg width="185" height="76" viewBox="0 0 185 76" fill="none" xmlns="http://www.w3.org/2000/svg">
<path d="M155 8H35C18.4315 8 5 21.4315 5 38C5 54.5685 18.4315 68 35 68H155C171.569 68 185 54.5685 185 38C185 21.4315 171.569 8 155 8Z" fill="#F03F39"/>
<path d="M71.8125 30.0566H68.1152V33.0801H72.4102V34H66.9902V25.4688H72.3516V26.3945H68.1152V29.1367H71.8125V30.0566ZM74.666 27.6602L74.7012 28.457C75.1855 27.8477 75.8184 27.543 76.5996 27.543C77.9395 27.543 78.6152 28.2988 78.627 29.8105V34H77.543V29.8047C77.5391 29.3477 77.4336 29.0098 77.2266 28.791C77.0234 28.5723 76.7051 28.4629 76.2715 28.4629C75.9199 28.4629 75.6113 28.5566 75.3457 28.7441C75.0801 28.9316 74.873 29.1777 74.7246 29.4824V34H73.6406V27.6602H74.666ZM81.7324 26.125V27.6602H82.916V28.498H81.7324V32.4297C81.7324 32.6836 81.7852 32.875 81.8906 33.0039C81.9961 33.1289 82.1758 33.1914 82.4297 33.1914C82.5547 33.1914 82.7266 33.168 82.9453 33.1211V34C82.6602 34.0781 82.3828 34.1172 82.1133 34.1172C81.6289 34.1172 81.2637 33.9707 81.0176 33.6777C80.7715 33.3848 80.6484 32.9688 80.6484 32.4297V28.498H79.4941V27.6602H80.6484V26.125H81.7324ZM87.252 28.6328C87.0879 28.6055 86.9102 28.5918 86.7188 28.5918C86.0078 28.5918 85.5254 28.8945 85.2715 29.5V34H84.1875V27.6602H85.2422L85.2598 28.3926C85.6152 27.8262 86.1191 27.543 86.7715 27.543C86.9824 27.543 87.1426 27.5703 87.252 27.625V28.6328ZM91.9336 34C91.8711 33.875 91.8203 33.6523 91.7812 33.332C91.2773 33.8555 90.6758 34.1172 89.9766 34.1172C89.3516 34.1172 88.8379 33.9414 88.4355 33.5898C88.0371 33.2344 87.8379 32.7852 87.8379 32.2422C87.8379 31.582 88.0879 31.0703 88.5879 30.707C89.0918 30.3398 89.7988 30.1562 90.709 30.1562H91.7637V29.6582C91.7637 29.2793 91.6504 28.9785 91.4238 28.7559C91.1973 28.5293 90.8633 28.416 90.4219 28.416C90.0352 28.416 89.7109 28.5137 89.4492 28.709C89.1875 28.9043 89.0566 29.1406 89.0566 29.418H87.9668C87.9668 29.1016 88.0781 28.7969 88.3008 28.5039C88.5273 28.207 88.832 27.9727 89.2148 27.8008C89.6016 27.6289 90.0254 27.543 90.4863 27.543C91.2168 27.543 91.7891 27.7266 92.2031 28.0938C92.6172 28.457 92.832 28.959 92.8477 29.5996V32.5176C92.8477 33.0996 92.9219 33.5625 93.0703 33.9062V34H91.9336ZM90.1348 33.1738C90.4746 33.1738 90.7969 33.0859 91.1016 32.9102C91.4062 32.7344 91.627 32.5059 91.7637 32.2246V30.9238H90.9141C89.5859 30.9238 88.9219 31.3125 88.9219 32.0898C88.9219 32.4297 89.0352 32.6953 89.2617 32.8867C89.4883 33.0781 89.7793 33.1738 90.1348 33.1738ZM97.6113 28.6328C97.4473 28.6055 97.2695 28.5918 97.0781 28.5918C96.3672 28.5918 95.8848 28.8945 95.6309 29.5V34H94.5469V27.6602H95.6016L95.6191 28.3926C95.9746 27.8262 96.4785 27.543 97.1309 27.543C97.3418 27.543 97.502 27.5703 97.6113 27.625V28.6328ZM104.133 33.2324C104.52 33.2324 104.857 33.1152 105.146 32.8809C105.436 32.6465 105.596 32.3535 105.627 32.002H106.652C106.633 32.3652 106.508 32.7109 106.277 33.0391C106.047 33.3672 105.738 33.6289 105.352 33.8242C104.969 34.0195 104.562 34.1172 104.133 34.1172C103.27 34.1172 102.582 33.8301 102.07 33.2559C101.562 32.6777 101.309 31.8887 101.309 30.8887V30.707C101.309 30.0898 101.422 29.541 101.648 29.0605C101.875 28.5801 102.199 28.207 102.621 27.9414C103.047 27.6758 103.549 27.543 104.127 27.543C104.838 27.543 105.428 27.7559 105.896 28.1816C106.369 28.6074 106.621 29.1602 106.652 29.8398H105.627C105.596 29.4297 105.439 29.0938 105.158 28.832C104.881 28.5664 104.537 28.4336 104.127 28.4336C103.576 28.4336 103.148 28.6328 102.844 29.0312C102.543 29.4258 102.393 29.998 102.393 30.748V30.9531C102.393 31.6836 102.543 32.2461 102.844 32.6406C103.145 33.0352 103.574 33.2324 104.133 33.2324ZM107.584 30.7715C107.584 30.1504 107.705 29.5918 107.947 29.0957C108.193 28.5996 108.533 28.2168 108.967 27.9473C109.404 27.6777 109.902 27.543 110.461 27.543C111.324 27.543 112.021 27.8418 112.553 28.4395C113.088 29.0371 113.355 29.832 113.355 30.8242V30.9004C113.355 31.5176 113.236 32.0723 112.998 32.5645C112.764 33.0527 112.426 33.4336 111.984 33.707C111.547 33.9805 111.043 34.1172 110.473 34.1172C109.613 34.1172 108.916 33.8184 108.381 33.2207C107.85 32.623 107.584 31.832 107.584 30.8477V30.7715ZM108.674 30.9004C108.674 31.6035 108.836 32.168 109.16 32.5938C109.488 33.0195 109.926 33.2324 110.473 33.2324C111.023 33.2324 111.461 33.0176 111.785 32.5879C112.109 32.1543 112.271 31.5488 112.271 30.7715C112.271 30.0762 112.105 29.5137 111.773 29.084C111.445 28.6504 111.008 28.4336 110.461 28.4336C109.926 28.4336 109.494 28.6465 109.166 29.0723C108.838 29.498 108.674 30.1074 108.674 30.9004ZM115.734 27.6602L115.764 28.3633C116.229 27.8164 116.855 27.543 117.645 27.543C118.531 27.543 119.135 27.8828 119.455 28.5625C119.666 28.2578 119.939 28.0117 120.275 27.8242C120.615 27.6367 121.016 27.543 121.477 27.543C122.867 27.543 123.574 28.2793 123.598 29.752V34H122.514V29.8164C122.514 29.3633 122.41 29.0254 122.203 28.8027C121.996 28.5762 121.648 28.4629 121.16 28.4629C120.758 28.4629 120.424 28.584 120.158 28.8262C119.893 29.0645 119.738 29.3867 119.695 29.793V34H118.605V29.8457C118.605 28.9238 118.154 28.4629 117.252 28.4629C116.541 28.4629 116.055 28.7656 115.793 29.3711V34H114.709V27.6602H115.734ZM74.7637 49.7422C74.3945 50.1842 73.8727 50.5283 73.1982 50.7744C72.5238 51.016 71.7764 51.1367 70.9561 51.1367C70.0947 51.1367 69.3382 50.9499 68.6865 50.5762C68.0394 50.1979 67.5381 49.651 67.1826 48.9355C66.8317 48.2201 66.6517 47.3792 66.6426 46.4131V45.7363C66.6426 44.7428 66.8089 43.8838 67.1416 43.1592C67.4788 42.43 67.9619 41.874 68.5908 41.4912C69.2243 41.1038 69.9648 40.9102 70.8125 40.9102C71.9928 40.9102 72.9157 41.1927 73.5811 41.7578C74.2464 42.3184 74.6406 43.1364 74.7637 44.2119H72.7676C72.6764 43.6423 72.4736 43.2253 72.1592 42.9609C71.8493 42.6966 71.4209 42.5645 70.874 42.5645C70.1768 42.5645 69.6458 42.8265 69.2812 43.3506C68.9167 43.8747 68.7321 44.654 68.7275 45.6885V46.3242C68.7275 47.3678 68.9258 48.1562 69.3223 48.6895C69.7188 49.2227 70.2998 49.4893 71.0654 49.4893C71.8356 49.4893 72.3848 49.3252 72.7129 48.9971V47.2812H70.8467V45.7705H74.7637V49.7422ZM75.9941 47.2334C75.9941 46.4997 76.1354 45.8457 76.418 45.2715C76.7005 44.6973 77.1061 44.2529 77.6348 43.9385C78.168 43.624 78.7855 43.4668 79.4873 43.4668C80.4854 43.4668 81.2988 43.7721 81.9277 44.3828C82.5612 44.9935 82.9144 45.8229 82.9873 46.8711L83.001 47.377C83.001 48.5117 82.6842 49.4232 82.0508 50.1113C81.4173 50.7949 80.5674 51.1367 79.501 51.1367C78.4346 51.1367 77.5824 50.7949 76.9443 50.1113C76.3109 49.4277 75.9941 48.498 75.9941 47.3223V47.2334ZM77.9697 47.377C77.9697 48.0788 78.1019 48.6165 78.3662 48.9902C78.6305 49.3594 79.0088 49.5439 79.501 49.5439C79.9795 49.5439 80.3532 49.3617 80.6221 48.9971C80.891 48.6279 81.0254 48.04 81.0254 47.2334C81.0254 46.5452 80.891 46.012 80.6221 45.6338C80.3532 45.2555 79.9749 45.0664 79.4873 45.0664C79.0042 45.0664 78.6305 45.2555 78.3662 45.6338C78.1019 46.0075 77.9697 46.5885 77.9697 47.377ZM83.9102 47.2334C83.9102 46.4997 84.0514 45.8457 84.334 45.2715C84.6165 44.6973 85.0221 44.2529 85.5508 43.9385C86.084 43.624 86.7015 43.4668 87.4033 43.4668C88.4014 43.4668 89.2148 43.7721 89.8438 44.3828C90.4772 44.9935 90.8304 45.8229 90.9033 46.8711L90.917 47.377C90.917 48.5117 90.6003 49.4232 89.9668 50.1113C89.3333 50.7949 88.4834 51.1367 87.417 51.1367C86.3506 51.1367 85.4984 50.7949 84.8604 50.1113C84.2269 49.4277 83.9102 48.498 83.9102 47.3223V47.2334ZM85.8857 47.377C85.8857 48.0788 86.0179 48.6165 86.2822 48.9902C86.5465 49.3594 86.9248 49.5439 87.417 49.5439C87.8955 49.5439 88.2692 49.3617 88.5381 48.9971C88.807 48.6279 88.9414 48.04 88.9414 47.2334C88.9414 46.5452 88.807 46.012 88.5381 45.6338C88.2692 45.2555 87.891 45.0664 87.4033 45.0664C86.9202 45.0664 86.5465 45.2555 86.2822 45.6338C86.0179 46.0075 85.8857 46.5885 85.8857 47.377ZM91.8467 47.2471C91.8467 46.1123 92.1156 45.1986 92.6533 44.5059C93.1956 43.8132 93.9248 43.4668 94.8408 43.4668C95.652 43.4668 96.2832 43.7448 96.7344 44.3008L96.8164 43.6035H98.6074V50.7539C98.6074 51.401 98.4593 51.9639 98.1631 52.4424C97.8714 52.9209 97.459 53.2855 96.9258 53.5361C96.3926 53.7868 95.7682 53.9121 95.0527 53.9121C94.5104 53.9121 93.9818 53.8027 93.4668 53.584C92.9518 53.3698 92.5622 53.0918 92.2979 52.75L93.1729 51.5469C93.665 52.0983 94.262 52.374 94.9639 52.374C95.488 52.374 95.8958 52.2327 96.1875 51.9502C96.4792 51.6722 96.625 51.2757 96.625 50.7607V50.3643C96.1693 50.8792 95.57 51.1367 94.8271 51.1367C93.9385 51.1367 93.2184 50.7904 92.667 50.0977C92.1201 49.4004 91.8467 48.4775 91.8467 47.3291V47.2471ZM93.8223 47.3906C93.8223 48.0605 93.9567 48.5869 94.2256 48.9697C94.4945 49.348 94.8636 49.5371 95.333 49.5371C95.9346 49.5371 96.3652 49.3115 96.625 48.8604V45.75C96.3607 45.2988 95.9346 45.0732 95.3467 45.0732C94.8727 45.0732 94.499 45.2669 94.2256 45.6543C93.9567 46.0417 93.8223 46.6204 93.8223 47.3906ZM102.217 51H100.234V40.5H102.217V51ZM107.255 51.1367C106.17 51.1367 105.286 50.804 104.603 50.1387C103.924 49.4733 103.584 48.5869 103.584 47.4795V47.2881C103.584 46.5452 103.728 45.8822 104.015 45.2988C104.302 44.7109 104.707 44.2598 105.231 43.9453C105.76 43.6263 106.362 43.4668 107.036 43.4668C108.048 43.4668 108.843 43.7858 109.422 44.4238C110.005 45.0618 110.297 45.9665 110.297 47.1377V47.9443H105.587C105.651 48.4274 105.842 48.8148 106.161 49.1064C106.485 49.3981 106.893 49.5439 107.385 49.5439C108.146 49.5439 108.741 49.2682 109.169 48.7168L110.14 49.8037C109.843 50.223 109.442 50.5511 108.937 50.7881C108.431 51.0205 107.87 51.1367 107.255 51.1367ZM107.029 45.0664C106.637 45.0664 106.318 45.1986 106.072 45.4629C105.831 45.7272 105.676 46.1055 105.607 46.5977H108.355V46.4404C108.346 46.0029 108.228 45.6657 108 45.4287C107.772 45.1872 107.449 45.0664 107.029 45.0664Z" fill="white"/>
<g filter="url(#filter0_d)">
<path d="M38 56C47.9411 56 56 47.9411 56 38C56 28.0589 47.9411 20 38 20C28.0589 20 20 28.0589 20 38C20 47.9411 28.0589 56 38 56Z" fill="#F03F39"/>
</g>
<path d="M46.8248 38.1718C46.8248 43.2888 43.3248 46.9308 38.1448 46.9308C36.967 46.9308 35.8007 46.6988 34.7125 46.248C33.6243 45.7973 32.6356 45.1366 31.8027 44.3038C30.9699 43.471 30.3092 42.4822 29.8585 41.394C29.4078 40.3059 29.1758 39.1396 29.1758 37.9618C29.1758 36.7839 29.4078 35.6176 29.8585 34.5295C30.3092 33.4413 30.9699 32.4526 31.8027 31.6197C32.6356 30.7869 33.6243 30.1262 34.7125 29.6755C35.8007 29.2247 36.967 28.9928 38.1448 28.9928C40.3782 28.9671 42.5344 29.8088 44.1598 31.3408L41.7178 33.6878C38.5248 30.6058 32.5858 32.9208 32.5858 37.9628C32.5725 39.4512 33.1504 40.8841 34.1927 41.9468C35.2349 43.0095 36.6563 43.6152 38.1448 43.6308C39.318 43.7133 40.4812 43.3667 41.418 42.6555C42.3547 41.9443 43.0011 40.917 43.2368 39.7648H38.1448V36.6748H46.6838C46.7785 37.1681 46.8257 37.6694 46.8248 38.1718V38.1718Z" fill="white"/>
<path d="M155 19.437C155 19.8181 155.151 20.1836 155.421 20.4531C155.69 20.7226 156.056 20.874 156.437 20.874C160.596 20.879 164.584 22.5336 167.525 25.4749C170.465 28.4161 172.12 32.4037 172.124 36.5629C172.124 36.944 172.275 37.3096 172.545 37.579C172.814 37.8485 173.18 37.9999 173.561 37.9999C173.942 37.9999 174.308 37.8485 174.577 37.579C174.847 37.3096 174.998 36.944 174.998 36.5629C174.992 31.6423 173.035 26.925 169.555 23.4454C166.076 19.9659 161.359 18.0083 156.438 18.002C156.057 18.0017 155.692 18.1527 155.422 18.4218C155.152 18.6908 155.001 19.056 155 19.437V19.437Z" fill="white"/>
<defs>
<filter id="filter0_d" x="0" y="0" width="76" height="76" filterUnits="userSpaceOnUse" color-interpolation-filters="sRGB">
<feFlood flood-opacity="0" result="BackgroundImageFix"/>
<feColorMatrix in="SourceAlpha" type="matrix" values="0 0 0 0 0 0 0 0 0 0 0 0 0 0 0 0 0 0 127 0"/>
<feOffset/>
<feGaussianBlur stdDeviation="10"/>
<feColorMatrix type="matrix" values="0 0 0 0 0.552941 0 0 0 0 0.0196078 0 0 0 0 0 0 0 0 1 0"/>
<feBlend mode="normal" in2="BackgroundImageFix" result="effect1_dropShadow"/>
<feBlend mode="normal" in="SourceGraphic" in2="effect1_dropShadow" result="shape"/>
</filter>
</defs>
</svg>