<svg xmlns="http://www.w3.org/2000/svg" xmlns:xlink="http://www.w3.org/1999/xlink" width="195" height="96" viewBox="0 0 195 96"><defs><style>.a{fill:#f03f39;}.b,.d,.e{fill:#fff;}.b{font-size:12px;font-family:SFProDisplay-Medium, SF Pro Display;font-weight:500;}.c{font-size:16px;font-family:SFProDisplay-Bold, SF Pro Display;font-weight:700;}.e{stroke:rgba(241,91,38,0);stroke-linejoin:round;}.f{filter:url(#a);}</style><filter id="a" x="0" y="0" width="96" height="96" filterUnits="userSpaceOnUse"><feOffset input="SourceAlpha"/><feGaussianBlur stdDeviation="10" result="b"/><feFlood flood-color="#8d0500"/><feComposite operator="in" in2="b"/><feComposite in="SourceGraphic"/></filter></defs><g transform="translate(15 18)"><rect class="a" width="180" height="60" rx="30"/><g transform="translate(15 12)"><text class="b" transform="translate(46 14)"><tspan x="0" y="0">Entrar com</tspan><tspan class="c"><tspan x="0" y="16">Google</tspan></tspan></text><g class="f" transform="matrix(1, 0, 0, 1, -30, -30)"><circle class="a" cx="18" cy="18" r="18" transform="translate(30 30)"/></g><path class="d" d="M17.649,9.741c0,5.117-3.5,8.759-8.68,8.759a8.969,8.969,0,1,1,0-17.938A8.625,8.625,0,0,1,14.984,2.91L12.542,5.257C9.349,2.175,3.41,4.49,3.41,9.532A5.618,5.618,0,0,0,8.969,15.2a4.85,4.85,0,0,0,5.092-3.866H8.969V8.244h8.539A7.863,7.863,0,0,1,17.649,9.741Z" transform="translate(9.176 8.431)"/></g><path class="e" d="M1384,535.435a1.437,1.437,0,0,0,1.437,1.437,15.706,15.706,0,0,1,15.687,15.689,1.437,1.437,0,1,0,2.874,0A18.584,18.584,0,0,0,1385.438,534,1.437,1.437,0,0,0,1384,535.435Z" transform="translate(-1234 -523.998)"/></g></svg>