<svg xmlns="http://www.w3.org/2000/svg" width="185.44" height="134.754" viewBox="0 0 185.44 134.754"><defs><style>.a{fill:#fff;}</style></defs><g transform="translate(-364.34 -862.37)"><path class="a" d="M560.852,890.434c-3.78,3.429-7.5,5.972-7.055,11.816.473,6.274-.187,12.633-.361,18.955-.1,3.646-2.912,3.138-5.179,3.238-2.871.127-2.1-2.184-2.073-3.664q.578-28.49,1.3-56.976a6.363,6.363,0,0,1,.281-1.258c5.081.015,6.021.788,6.1,5.448.1,5.883.052,11.769.066,17.653,0,1.206,0,2.414,0,3.62l1.019.488a52.94,52.94,0,0,0,4.253-5.187c2.85-4.486,5.372-9.181,8.266-13.637a31.215,31.215,0,0,1,5.267-6.151c.982-.883,2.744-.9,4.152-1.308l.694,1.146c-1.7,2.608-3.4,5.211-5.086,7.826-.98,1.521-1.833,3.134-2.911,4.58-3.185,4.272-3.853,8.029-1.2,13.468,3.305,6.783,4.492,14.6,6.591,21.965.741,2.6,1.572,5.179,2.161,7.812.236,1.06.189,3.105-.173,3.213-1.392.414-3.517.852-4.347.122a11.773,11.773,0,0,1-3.227-5.271c-2.635-8.739-5.016-17.554-7.513-26.334A8.438,8.438,0,0,0,560.852,890.434Z" transform="translate(-57.576 -0.056)"/><path class="a" d="M445.711,894.4c0-9.495.04-18.99-.029-28.485-.019-2.6,1.238-3.317,3.573-3.142,2.481.186,5.025-.056,7.448.393,10.354,1.92,15.52,10.2,13.076,21.06-1.866,8.293-6.8,14.238-14.808,17.271-2.313.877-3.2,2-3.16,4.4.077,4.749.121,9.514-.225,14.243a5.95,5.95,0,0,1-2.395,4.159c-2.2,1.286-4.184.512-4.378-2.439-.163-2.476-.161-4.964-.169-7.447-.021-6.669-.008-13.339-.008-20.009Zm6.556,2.369c7.967-3.893,11.277-12.319,9.087-21.942-1.46-6.412-4.591-9.68-10.187-9.75C451.532,875.581,451.895,886.043,452.267,896.772Z" transform="translate(-25.439 -0.121)"/><path class="a" d="M395.921,898.646c-.314,6.84.107,13.756-4.223,19.841-3.747,5.267-9.1,6.737-14.873,6.353-4.914-.326-7.944-3.912-9.85-8.343-2.673-6.211-2.794-12.8-2.549-19.348a141.541,141.541,0,0,1,1.673-15.824c1.015-6.707,4.657-12.3,8.961-17.243,1.159-1.331,4.862-1.735,6.7-.948,5.312,2.267,9.6,5.764,10.634,12.178,1.2,7.432,2.823,14.8,4.288,22.186a.978.978,0,0,1-.765,1.148Zm-26.938-.146.969.118a28.384,28.384,0,0,0,3,17.109c3.16,6.388,9.332,6.983,14.115,1.594,4.236-4.773,4.9-10.31,5.12-16.338.318-8.739-3.533-16.463-5.15-24.712-.8-4.063-3.742-6.055-7.035-7.575a3.735,3.735,0,0,0-3.484,1.047c-1.631,2.673-3.327,5.516-4,8.518C371.019,884.935,370.124,891.745,368.982,898.5Z" transform="translate(0 -0.115)"/><path class="a" d="M491.238,899.246c-.009-12.693,1.579-24.177,9.377-33.957,2.475-3.1,5.527-3.742,9.112-1.868,5.112,2.672,8.037,6.644,9.711,12.277a74.626,74.626,0,0,1,2.593,33.491c-1.784,10.944-7.3,15.792-18.266,15.577-4.234-.083-7.2-3.066-9.127-6.776C491.465,911.867,491.039,905.232,491.238,899.246Zm27.9,2.409.938-.261c-2.005-8.171-4.2-16.3-5.937-24.53-.849-4.012-3.407-6.185-6.552-8.092-1.974-1.2-3.742-1.144-4.646,1.28-1.879,5.044-4.465,10-5.282,15.225-1.584,10.127-2.851,20.438,2.03,30.265,3.162,6.367,9.309,7.044,14.145,1.732C517.955,912.744,519.1,907.441,519.133,901.655Z" transform="translate(-40.191)"/><path class="a" d="M619.35,893.659c-2.386.178-4.511.422-6.641.473-2.326.056-3.153,1.159-3.106,3.422q.2,9.821.164,19.647c-.012,2.412.721,3.637,3.356,3.322,2.359-.282,4.763-.219,7.112-.555,2.395-.342,3.965.28,4.65,3.494-6.922,0-13.65,1.776-20.435.249-1.118-.251-2.463-2.375-2.552-3.71-.195-2.891.624-5.838.553-8.75-.25-10.285-.8-20.563-1.029-30.847a141.144,141.144,0,0,1,.531-14.549c.1-1.187,1.357-3.216,2.162-3.256,5.7-.285,11.412-.152,17.282-.152-.184,3.239-1.543,4.255-3.993,4.133-2.036-.1-4.079-.2-6.116-.148-1.877.045-2.857.936-2.712,3.024.4,5.748.742,11.5.959,17.259.1,2.616.95,3.716,3.824,3.857C615.414,890.672,618.977,888.859,619.35,893.659Z" transform="translate(-75.105 -0.015)"/><path class="a" d="M514.423,984.186c0,1.313-.077,2.425.017,3.521.167,1.957-.76,2.553-2.6,2.549-15.626-.035-31.254.066-46.879-.07-4.819-.042-1.7-3.764-2.714-6Z" transform="translate(-30.996 -38.594)"/><path class="a" d="M587.042,1038c-.247,1.878-.391,3.678-.732,5.439-.861,4.445-2.79,5.941-7.246,5.768-3.727-.145-5.742-2-6.073-6.282a61.6,61.6,0,0,1,.073-10.429c.348-3.731,2.439-5.425,6.021-5.572,4.21-.173,6.315,1.278,7.119,5.114C586.617,1034.017,586.775,1036.045,587.042,1038Zm-11.9-.422c.146,2.1-.2,4.127.53,5.631a6.88,6.88,0,0,0,3.9,3.433c2.3.571,3.965-1.3,4.147-3.483a44.622,44.622,0,0,0-.154-10.426,4.854,4.854,0,0,0-3.622-3.084c-1.443.027-3.358,1.533-4.139,2.919C575,1034.01,575.3,1036.073,575.141,1037.582Z" transform="translate(-66.046 -52.132)"/><path class="a" d="M558.528,1048.321c-1.9-1.2-2.681-3.682-4.417-5.534a1.12,1.12,0,0,0-1.924.61c-.176,1.237-.344,2.391-.612,3.522a4.074,4.074,0,0,1-.152.493,1.117,1.117,0,0,1-2.154-.3v-.025q-.141-8.492.006-16.988a1.4,1.4,0,0,1,.041-.309,1.121,1.121,0,0,1,2.154-.038,2.154,2.154,0,0,1,.088.45c.112,1.377.1,2.763.074,4.288a1.118,1.118,0,0,0,1.9.817c1.884-1.908,2.794-4.768,4.994-6.481a1.118,1.118,0,0,1,1.595,1.524c-1.355,2-2.567,3.788-3.622,5.629a5.805,5.805,0,0,0-.017,5.162c1.082,1.921,2.317,3.76,3.55,5.6A1.117,1.117,0,0,1,558.528,1048.321Z" transform="translate(-58.567 -52.661)"/><path class="a" d="M431.6,1038.212c0-2.826-.071-5.656.051-8.477a1.734,1.734,0,0,1,.161-.618,1.1,1.1,0,0,1,1.922-.158,1.952,1.952,0,0,1,.363.864,45.7,45.7,0,0,1,.1,6.1c-.08,2.85,1.893,2.47,3.709,2.524,1.9.056,3.382-.123,3.226-2.641a51,51,0,0,1,.041-6.439,1.4,1.4,0,0,1,.259-.661,1.086,1.086,0,0,1,1.726-.118,1.12,1.12,0,0,1,.323.665q.13,9.324-.006,18.65a.9.9,0,0,1-.25.534,1.179,1.179,0,0,1-1.994-.262.949.949,0,0,1-.051-.2,12.187,12.187,0,0,1-.044-3.381c.43-3.133-1.092-3.893-3.924-3.771-2.17.092-3.156.876-3.016,3.03a2.03,2.03,0,0,1-.017.676q-.221.768-.448,1.533a.975.975,0,0,1-1.893-.1,11.935,11.935,0,0,1-.2-1.313C431.46,1042.52,431.6,1040.36,431.6,1038.212Z" transform="translate(-21.294 -52.543)"/><path class="a" d="M516.663,1035.844c2.72-2.483,3.477-6.369,6.9-7.552a.73.73,0,0,1,.838,1.092c-1.478,2.282-2.927,4.585-4.536,6.771a3.393,3.393,0,0,0-.023,4.564c1.688,2.392,3.233,4.885,4.841,7.386a.727.727,0,0,1-.456,1.107c-1.659.341-1.907-.034-3.583-2.537-1.364-2.037-2.744-4.063-4.111-6.1l-.182.038c-.362,2.03-.495,4.111-.949,6.12a6.29,6.29,0,0,1-.546,1.412.733.733,0,0,1-1.31,0,3.508,3.508,0,0,1-.46-1.471q-.16-8.316,0-16.635a2.763,2.763,0,0,1,.535-1.348.728.728,0,0,1,1.241.024,3.381,3.381,0,0,1,.523,1.362c.133,1.615.087,3.244.063,5.2A.731.731,0,0,0,516.663,1035.844Z" transform="translate(-47.102 -52.555)"/><path class="a" d="M404.168,1038.03a56.307,56.307,0,0,1,1.212-7.4c.749-2.517,2.81-3.665,5.483-3.7,2.483-.035,4.915.213,6.063,2.74a3.508,3.508,0,0,1,.26,1.41,1.01,1.01,0,0,1-1.687.741,6.136,6.136,0,0,0-.741-.56c-1.145-.726-2.485-1.775-3.646-1.668-1.191.11-3.163,1.366-3.243,2.26a68.206,68.206,0,0,0-.04,12.314c.091.978,2.222,2.406,3.464,2.458,1.183.05,2.442-1.411,3.645-2.239.318-.219.629-.449.935-.684a.906.906,0,0,1,1.441.548,2.966,2.966,0,0,1,.02,1.29c-.711,2.681-2.739,3.6-5.383,3.71-2.985.127-5.589-.589-6.537-3.624A51.869,51.869,0,0,1,404.168,1038.03Z" transform="translate(-12.618 -52.134)"/><path class="a" d="M457.244,1039.369c.047-2.49-.115-4.992.042-7.474.095-1.5.333-4.188.816-4.259a48.259,48.259,0,0,1,8.389-.125c.191.005.544.749.489,1.1a1.326,1.326,0,0,1-.844.857,9.516,9.516,0,0,1-2.024.117c-4.521.1-4.365.1-4.5,4.471-.085,2.723.889,3.647,3.537,3.487a2.033,2.033,0,0,1,1.047.3,1.006,1.006,0,0,1-.1,1.808,1.713,1.713,0,0,1-.82.159c-3.236-.316-3.647,1.354-3.683,4.073-.042,3.177,1.83,3.1,3.979,3.032a4.173,4.173,0,0,1,1.68.046,3.494,3.494,0,0,1,.376.193,1.162,1.162,0,0,1-.06,2.008l-.264.144c-.088.047-.223.011-.336.009-9.249-.129-7.547,1.2-7.7-6.82C457.247,1041.448,457.224,1040.406,457.244,1039.369Z" transform="translate(-29.425 -52.282)"/><path class="a" d="M489.353,1028.957a.769.769,0,0,1-.636.432c-.511.039-1.022.083-1.534.094-5.119.107-6.657,2.076-5.045,7.048.267.823,2.233,1.066,3.378,1.645.5.253.982.542,1.461.838a.771.771,0,0,1,.02,1.3,2.264,2.264,0,0,1-1.364.536c-3.131-.335-4.051,1.13-3.74,3.937a4.826,4.826,0,0,1-.041,2.017,6.046,6.046,0,0,1-.6,1.2.77.77,0,0,1-1.325-.04,2.819,2.819,0,0,1-.442-1.282c-.1-5.64,0-11.285-.081-16.926-.025-1.817.483-2.764,2.468-2.654,1.8.1,3.627-.1,5.418.08a4.535,4.535,0,0,1,1.773.8.769.769,0,0,1,.291.989Z" transform="translate(-36.455 -52.185)"/><path class="a" d="M540.278,1038.975c0,2.815.074,5.632-.05,8.441a1.691,1.691,0,0,1-.119.527,1.191,1.191,0,0,1-2.158.113.945.945,0,0,1-.1-.384q-.155-8.947-.006-17.9a1.108,1.108,0,0,1,.1-.418,1.191,1.191,0,0,1,2.161.021,1.406,1.406,0,0,1,.115.481C540.351,1032.892,540.278,1035.935,540.278,1038.975Z" transform="translate(-54.948 -52.69)"/></g></svg>