<svg width="58" height="41" viewBox="0 0 58 41" fill="none" xmlns="http://www.w3.org/2000/svg">
<path d="M22.0488 20.4207C22.0488 14.1767 24.6876 8.61635 28.7972 5.01867C25.7673 2.36535 21.9393 0.777344 17.7734 0.777344C7.95677 0.777344 0 9.57244 0 20.4207C0 31.2689 7.95677 40.064 17.7734 40.064C21.9393 40.064 25.7673 38.476 28.7972 35.8226C24.6876 32.225 22.0488 26.6646 22.0488 20.4207Z" fill="#ED1D26"/>
<path d="M22.0488 20.4204C22.0488 26.6643 24.6876 32.2246 28.7972 35.8223C32.9068 32.2246 35.5467 26.6643 35.5467 20.4204C35.5467 14.1765 32.9068 8.6162 28.7972 5.01855C24.6876 8.6162 22.0488 14.1765 22.0488 20.4204Z" fill="#F2571A"/>
<path d="M57.5044 31.0454V30.5379L57.3546 30.9751H57.1898L57.0411 30.539V31.0454H56.8848V30.314H57.108L57.2727 30.7828L57.4375 30.314H57.6596V31.0454H57.5044ZM56.3907 31.0454V30.4722H56.1792V30.314H56.7562V30.4722H56.5458V31.0454H56.3907Z" fill="#F79511"/>
<path d="M39.8218 0.777344C35.6559 0.777344 31.8279 2.36652 28.7969 5.01867C32.9076 8.61635 35.5464 14.1767 35.5464 20.4207C35.5464 26.6658 32.9076 32.225 28.7969 35.8226C31.8279 38.476 35.6559 40.064 39.8218 40.064C49.6373 40.064 57.5952 31.2689 57.5952 20.4207C57.5952 9.57244 49.6373 0.777344 39.8218 0.777344Z" fill="#F79511"/>
</svg>