<svg xmlns="http://www.w3.org/2000/svg" width="14.953" height="20" viewBox="0 0 14.953 20"><defs><style>.a{fill:#fff;}</style></defs><g transform="translate(-0.023 0)"><path class="a" d="M7.476,20a.681.681,0,0,1-.5-.216C6.691,19.475,0,12.156,0,7.243A7.371,7.371,0,0,1,7.477,0a7.371,7.371,0,0,1,7.476,7.243c0,4.956-6.691,12.233-6.976,12.541A.685.685,0,0,1,7.476,20Zm0-18.7A6.044,6.044,0,0,0,1.346,7.243c0,3.758,4.693,9.451,6.131,11.106,1.437-1.654,6.13-7.342,6.13-11.106A6.044,6.044,0,0,0,7.477,1.3Zm0,9.583A3.709,3.709,0,0,1,3.715,7.243,3.709,3.709,0,0,1,7.477,3.6a3.708,3.708,0,0,1,3.761,3.644A3.708,3.708,0,0,1,7.477,10.887Zm0-5.984a2.381,2.381,0,0,0-2.416,2.34,2.416,2.416,0,0,0,4.83,0A2.381,2.381,0,0,0,7.477,4.9Z" transform="translate(0.023)"/></g></svg>