<svg xmlns="http://www.w3.org/2000/svg" width="20" height="27" viewBox="0 0 20 27"><defs><style>.a{fill:#343131;}</style></defs><path class="a" d="M1.363,27A1.355,1.355,0,0,1,0,25.658V11.342A1.355,1.355,0,0,1,1.363,10H2a4,4,0,0,1,8,0H8.5a2.5,2.5,0,1,0-5,0H17.272a1.355,1.355,0,0,1,1.364,1.342v4.027A1.355,1.355,0,0,1,20,16.71V20.29a1.354,1.354,0,0,1-1.363,1.342v4.027A1.355,1.355,0,0,1,17.272,27Zm0-1.343H17.272V21.632H15a1.355,1.355,0,0,1-1.363-1.343V16.71A1.355,1.355,0,0,1,15,15.368h2.273V11.342H1.363ZM15,20.289h3.637V16.71H15ZM16.136,18.5a.682.682,0,1,1,.682.67A.677.677,0,0,1,16.136,18.5ZM9,4a4,4,0,1,1,4,4A4,4,0,0,1,9,4Zm1.5,0A2.5,2.5,0,1,0,13,1.5,2.5,2.5,0,0,0,10.5,4Z"/></svg>
