<svg xmlns="http://www.w3.org/2000/svg" width="20" height="20" viewBox="0 0 20 20"><defs><style>.a{fill:#fff;}</style></defs><path class="a" d="M10,20A10,10,0,1,1,20,10,10.011,10.011,0,0,1,10,20ZM4.386,16.591a8.6,8.6,0,0,0,11.432-.213A6.942,6.942,0,0,0,10.737,13a3.117,3.117,0,0,1-1.337.031,6.659,6.659,0,0,0-5,3.555H4.386ZM10,1.362A8.631,8.631,0,0,0,3.391,15.55a8.113,8.113,0,0,1,4.227-3.491A4.341,4.341,0,0,1,6.363,8.978,3.889,3.889,0,0,1,10,4.886a3.888,3.888,0,0,1,3.636,4.092,4.306,4.306,0,0,1-1.164,3,8.689,8.689,0,0,1,4.314,3.359A8.637,8.637,0,0,0,10,1.362ZM10,6.25A2.535,2.535,0,0,0,7.727,8.978a2.654,2.654,0,0,0,1.755,2.654c.242-.026.492-.04.745-.042.085,0,.173,0,.243.008l.13.006a2.7,2.7,0,0,0,1.673-2.627A2.535,2.535,0,0,0,10,6.25Z" transform="translate(0 0)"/></svg>