<svg width="46" height="46" viewBox="0 0 46 46" fill="none" xmlns="http://www.w3.org/2000/svg">
<path d="M23 46C35.7025 46 46 35.7025 46 23C46 10.2975 35.7025 0 23 0C10.2975 0 0 10.2975 0 23C0 35.7025 10.2975 46 23 46Z" fill="white"/>
<path d="M14.363 35C14.0045 35.0021 13.6597 34.8621 13.4043 34.6106C13.1488 34.359 13.0034 34.0165 13 33.658V19.342C13.0034 18.9835 13.1488 18.641 13.4043 18.3894C13.6597 18.1379 14.0045 17.9979 14.363 18H15C15 16.9391 15.4214 15.9217 16.1716 15.1716C16.9217 14.4214 17.9391 14 19 14C20.0609 14 21.0783 14.4214 21.8284 15.1716C22.5786 15.9217 23 16.9391 23 18H21.5C21.5 17.337 21.2366 16.7011 20.7678 16.2322C20.2989 15.7634 19.663 15.5 19 15.5C18.337 15.5 17.7011 15.7634 17.2322 16.2322C16.7634 16.7011 16.5 17.337 16.5 18H30.272C30.6307 17.9976 30.9757 18.1375 31.2314 18.3891C31.4871 18.6406 31.6326 18.9833 31.636 19.342V23.369C31.9945 23.3666 32.3394 23.5064 32.595 23.7577C32.8507 24.0091 32.9963 24.3515 33 24.71V28.29C32.9968 28.6486 32.8515 28.9913 32.596 29.2429C32.3405 29.4944 31.9956 29.6344 31.637 29.632V33.659C31.6333 34.0177 31.4875 34.3603 31.2317 34.6116C30.9758 34.863 30.6307 35.0027 30.272 35H14.363ZM14.363 33.657H30.272V29.632H28C27.6413 29.6341 27.2964 29.494 27.0409 29.2422C26.7854 28.9905 26.6402 28.6477 26.637 28.289V24.71C26.6404 24.3515 26.7858 24.009 27.0413 23.7574C27.2967 23.5059 27.6415 23.3659 28 23.368H30.273V19.342H14.363V33.657ZM28 28.289H31.637V24.71H28V28.289ZM29.136 26.5C29.1336 26.3646 29.1716 26.2316 29.2451 26.1179C29.3185 26.0042 29.4242 25.9149 29.5486 25.8614C29.673 25.808 29.8105 25.7927 29.9435 25.8177C30.0766 25.8426 30.1993 25.9066 30.2958 26.0015C30.3924 26.0964 30.4586 26.2179 30.4859 26.3505C30.5132 26.4831 30.5004 26.6208 30.4492 26.7461C30.3979 26.8715 30.3105 26.9787 30.1981 27.0542C30.0857 27.1297 29.9534 27.17 29.818 27.17C29.6388 27.1713 29.4664 27.1016 29.3385 26.976C29.2107 26.8504 29.1378 26.6792 29.136 26.5ZM22 12C22 11.2089 22.2346 10.4355 22.6741 9.77772C23.1136 9.11992 23.7384 8.60723 24.4693 8.30448C25.2002 8.00173 26.0044 7.92252 26.7804 8.07686C27.5563 8.2312 28.269 8.61216 28.8284 9.17157C29.3878 9.73098 29.7688 10.4437 29.9231 11.2196C30.0775 11.9956 29.9983 12.7998 29.6955 13.5307C29.3928 14.2616 28.8801 14.8864 28.2223 15.3259C27.5645 15.7654 26.7911 16 26 16C24.9391 16 23.9217 15.5786 23.1716 14.8284C22.4214 14.0783 22 13.0609 22 12V12ZM23.5 12C23.5 12.4945 23.6466 12.9778 23.9213 13.3889C24.196 13.8001 24.5865 14.1205 25.0433 14.3097C25.5001 14.4989 26.0028 14.5484 26.4877 14.452C26.9727 14.3555 27.4181 14.1174 27.7678 13.7678C28.1174 13.4181 28.3555 12.9727 28.452 12.4877C28.5484 12.0028 28.4989 11.5001 28.3097 11.0433C28.1205 10.5865 27.8 10.196 27.3889 9.92133C26.9778 9.64662 26.4945 9.5 26 9.5C25.337 9.5 24.7011 9.76339 24.2322 10.2322C23.7634 10.7011 23.5 11.337 23.5 12V12Z" fill="#343131"/>
</svg>