<svg width="26" height="31" viewBox="0 0 26 31" fill="none" xmlns="http://www.w3.org/2000/svg">
<path d="M7.26555 29.1534L7.78855 25.8314L6.62355 25.8044H1.06055L4.92655 1.29144C4.93855 1.21744 4.97755 1.14844 5.03455 1.09944C5.09155 1.05044 5.16455 1.02344 5.24055 1.02344H14.6205C17.7345 1.02344 19.8835 1.67144 21.0055 2.95044C21.5315 3.55044 21.8665 4.17744 22.0285 4.86744C22.1985 5.59144 22.2015 6.45644 22.0355 7.51144L22.0235 7.58844V8.26444L22.5495 8.56244C22.9925 8.79744 23.3445 9.06644 23.6145 9.37444C24.0645 9.88744 24.3555 10.5394 24.4785 11.3124C24.6055 12.1074 24.5635 13.0534 24.3555 14.1244C24.1155 15.3564 23.7275 16.4294 23.2035 17.3074C22.7215 18.1164 22.1075 18.7874 21.3785 19.3074C20.6825 19.8014 19.8555 20.1764 18.9205 20.4164C18.0145 20.6524 16.9815 20.7714 15.8485 20.7714H15.1185C14.5965 20.7714 14.0895 20.9594 13.6915 21.2964C13.2925 21.6404 13.0285 22.1104 12.9475 22.6244L12.8925 22.9234L11.9685 28.7784L11.9265 28.9934C11.9155 29.0614 11.8965 29.0954 11.8685 29.1184C11.8435 29.1394 11.8075 29.1534 11.7725 29.1534H7.26555Z" fill="#253B80"/>
<path d="M23.0472 7.66797C23.0192 7.84697 22.9872 8.02997 22.9512 8.21797C21.7142 14.569 17.4822 16.763 12.0772 16.763H9.32517C8.66417 16.763 8.10717 17.243 8.00417 17.895L6.59517 26.831L6.19617 29.364C6.12917 29.792 6.45917 30.178 6.89117 30.178H11.7722C12.3502 30.178 12.8412 29.758 12.9322 29.188L12.9802 28.94L13.8992 23.108L13.9582 22.788C14.0482 22.216 14.5402 21.796 15.1182 21.796H15.8482C20.5772 21.796 24.2792 19.876 25.3612 14.32C25.8132 11.999 25.5792 10.061 24.3832 8.69797C24.0212 8.28697 23.5722 7.94597 23.0472 7.66797Z" fill="#179BD7"/>
<path d="M21.7549 7.15103C21.5659 7.09603 21.3709 7.04603 21.1709 7.00103C20.9699 6.95703 20.7639 6.91803 20.5519 6.88403C19.8099 6.76403 18.9969 6.70703 18.1259 6.70703H10.7739C10.5929 6.70703 10.4209 6.74803 10.2669 6.82203C9.92786 6.98503 9.67586 7.30603 9.61486 7.69903L8.05086 17.605L8.00586 17.894C8.10886 17.242 8.66586 16.762 9.32686 16.762H12.0789C17.4839 16.762 21.7159 14.567 22.9529 8.21703C22.9899 8.02903 23.0209 7.84603 23.0489 7.66703C22.7359 7.50103 22.3969 7.35903 22.0319 7.23803C21.9419 7.20803 21.8489 7.17903 21.7549 7.15103Z" fill="#222D65"/>
<path d="M9.61399 7.699C9.67499 7.306 9.92699 6.985 10.266 6.823C10.421 6.749 10.592 6.708 10.773 6.708H18.125C18.996 6.708 19.809 6.765 20.551 6.885C20.763 6.919 20.969 6.958 21.17 7.002C21.37 7.047 21.565 7.097 21.754 7.152C21.848 7.18 21.941 7.209 22.032 7.238C22.397 7.359 22.736 7.502 23.049 7.667C23.417 5.32 23.046 3.722 21.777 2.275C20.378 0.682 17.853 0 14.622 0H5.24199C4.58199 0 4.01899 0.48 3.91699 1.133L0.00998882 25.898C-0.0670112 26.388 0.310989 26.83 0.804989 26.83H6.59599L8.04999 17.605L9.61399 7.699Z" fill="#253B80"/>
</svg>