<svg width="46" height="46" viewBox="0 0 46 46" fill="none" xmlns="http://www.w3.org/2000/svg">
<path d="M23 46C35.7025 46 46 35.7025 46 23C46 10.2975 35.7025 0 23 0C10.2975 0 0 10.2975 0 23C0 35.7025 10.2975 46 23 46Z" fill="white"/>
<path d="M18.6994 36.8805L19.1816 33.8177L18.1075 33.7928H12.9785L16.5429 11.1924C16.5539 11.1242 16.5899 11.0606 16.6424 11.0154C16.695 10.9702 16.7623 10.9453 16.8324 10.9453H25.4805C28.3515 10.9453 30.3329 11.5428 31.3673 12.722C31.8523 13.2751 32.1611 13.8532 32.3105 14.4894C32.4672 15.1569 32.47 15.9544 32.3169 16.9271L32.3059 16.9981V17.6213L32.7908 17.8961C33.1993 18.1127 33.5238 18.3608 33.7727 18.6447C34.1876 19.1177 34.4559 19.7188 34.5693 20.4315C34.6864 21.1645 34.6477 22.0367 34.4559 23.0241C34.2346 24.16 33.8769 25.1493 33.3938 25.9588C32.9494 26.7046 32.3833 27.3233 31.7112 27.8027C31.0695 28.2582 30.307 28.6039 29.445 28.8252C28.6097 29.0428 27.6573 29.1525 26.6127 29.1525H25.9396C25.4584 29.1525 24.9909 29.3258 24.624 29.6365C24.2561 29.9537 24.0127 30.387 23.938 30.8609L23.8873 31.1366L23.0354 36.5347L22.9967 36.733C22.9866 36.7956 22.969 36.827 22.9432 36.8482C22.9202 36.8676 22.887 36.8805 22.8547 36.8805H18.6994Z" fill="#253B80"/>
<path d="M33.2493 17.0703C33.2235 17.2353 33.1939 17.4041 33.1608 17.5774C32.0203 23.4329 28.1185 25.4557 23.1352 25.4557H20.5979C19.9885 25.4557 19.475 25.8982 19.38 26.4993L18.0809 34.7381L17.7131 37.0735C17.6513 37.4681 17.9555 37.824 18.3538 37.824H22.854C23.3869 37.824 23.8396 37.4367 23.9235 36.9112L23.9677 36.6826L24.815 31.3056L24.8694 31.0106C24.9524 30.4832 25.406 30.096 25.9389 30.096H26.612C30.972 30.096 34.3851 28.3258 35.3827 23.2033C35.7994 21.0634 35.5837 19.2766 34.481 18.0199C34.1473 17.641 33.7333 17.3266 33.2493 17.0703Z" fill="#179BD7"/>
<path d="M32.0571 16.593C31.8828 16.5422 31.7031 16.4961 31.5187 16.4547C31.3333 16.4141 31.1434 16.3781 30.948 16.3468C30.2639 16.2361 29.5143 16.1836 28.7112 16.1836H21.9329C21.766 16.1836 21.6074 16.2214 21.4654 16.2896C21.1529 16.4399 20.9206 16.7359 20.8643 17.0982L19.4223 26.2313L19.3809 26.4977C19.4758 25.8966 19.9894 25.4541 20.5988 25.4541H23.1361C28.1193 25.4541 32.0211 23.4303 33.1616 17.5758C33.1957 17.4024 33.2243 17.2337 33.2501 17.0687C32.9616 16.9156 32.649 16.7847 32.3125 16.6732C32.2295 16.6455 32.1438 16.6188 32.0571 16.593Z" fill="#222D65"/>
<path d="M20.8639 17.0983C20.9201 16.7359 21.1524 16.44 21.465 16.2906C21.6079 16.2224 21.7655 16.1846 21.9324 16.1846H28.7108C29.5138 16.1846 30.2634 16.2372 30.9475 16.3478C31.143 16.3791 31.3329 16.4151 31.5182 16.4557C31.7026 16.4972 31.8824 16.5433 32.0566 16.594C32.1433 16.6198 32.229 16.6465 32.3129 16.6733C32.6495 16.7848 32.962 16.9167 33.2506 17.0688C33.5899 14.9049 33.2478 13.4316 32.0778 12.0975C30.788 10.6288 28.46 10 25.4811 10H16.833C16.2245 10 15.7054 10.4425 15.6114 11.0446L12.0092 33.8773C11.9382 34.3291 12.2867 34.7366 12.7422 34.7366H18.0813L19.4219 26.2314L20.8639 17.0983Z" fill="#253B80"/>
</svg>