<svg width="89" height="25" viewBox="0 0 89 25" fill="none" xmlns="http://www.w3.org/2000/svg">
<path d="M11.2113 0.75H4.37234C3.90434 0.75 3.50633 1.09 3.43333 1.552L0.667336 19.089C0.612336 19.435 0.880335 19.747 1.23134 19.747H4.49633C4.96433 19.747 5.36234 19.407 5.43534 18.944L6.18134 14.214C6.25334 13.751 6.65234 13.411 7.11934 13.411H9.28434C13.7893 13.411 16.3893 11.231 17.0683 6.911C17.3743 5.021 17.0813 3.536 16.1963 2.496C15.2243 1.354 13.5003 0.75 11.2113 0.75ZM12.0003 7.155C11.6263 9.609 9.75134 9.609 7.93834 9.609H6.90633L7.63034 5.026C7.67334 4.749 7.91334 4.545 8.19334 4.545H8.66634C9.90134 4.545 11.0663 4.545 11.6683 5.249C12.0273 5.669 12.1373 6.293 12.0003 7.155Z" fill="#253B80"/>
<path d="M31.654 7.07362H28.379C28.1 7.07362 27.859 7.27762 27.816 7.55462L27.671 8.47062L27.442 8.13863C26.733 7.10963 25.152 6.76562 23.574 6.76562C19.955 6.76562 16.864 9.50663 16.262 13.3516C15.949 15.2696 16.394 17.1036 17.482 18.3826C18.48 19.5586 19.908 20.0486 21.607 20.0486C24.523 20.0486 26.14 18.1736 26.14 18.1736L25.994 19.0836C25.939 19.4316 26.207 19.7436 26.556 19.7436H29.506C29.975 19.7436 30.371 19.4036 30.445 18.9406L32.215 7.73162C32.271 7.38662 32.004 7.07362 31.654 7.07362ZM27.089 13.4476C26.773 15.3186 25.288 16.5746 23.394 16.5746C22.443 16.5746 21.683 16.2696 21.195 15.6916C20.711 15.1176 20.527 14.3006 20.681 13.3906C20.976 11.5356 22.486 10.2386 24.351 10.2386C25.281 10.2386 26.037 10.5476 26.535 11.1306C27.034 11.7196 27.232 12.5416 27.089 13.4476Z" fill="#253B80"/>
<path d="M49.0965 7.07422H45.8055C45.4915 7.07422 45.1965 7.23022 45.0185 7.49122L40.4795 14.1772L38.5555 7.75222C38.4345 7.35022 38.0635 7.07422 37.6435 7.07422H34.4095C34.0165 7.07422 33.7435 7.45822 33.8685 7.82822L37.4935 18.4662L34.0855 23.2772C33.8175 23.6562 34.0875 24.1772 34.5505 24.1772H37.8375C38.1495 24.1772 38.4415 24.0252 38.6185 23.7692L49.5645 7.96922C49.8265 7.59122 49.5575 7.07422 49.0965 7.07422Z" fill="#253B80"/>
<path d="M59.9926 0.75H53.1526C52.6856 0.75 52.2876 1.09 52.2146 1.552L49.4486 19.089C49.3936 19.435 49.6616 19.747 50.0106 19.747H53.5206C53.8466 19.747 54.1256 19.509 54.1766 19.185L54.9616 14.214C55.0336 13.751 55.4326 13.411 55.8996 13.411H58.0636C62.5696 13.411 65.1686 11.231 65.8486 6.911C66.1556 5.021 65.8606 3.536 64.9756 2.496C64.0046 1.354 62.2816 0.75 59.9926 0.75ZM60.7816 7.155C60.4086 9.609 58.5336 9.609 56.7196 9.609H55.6886L56.4136 5.026C56.4566 4.749 56.6946 4.545 56.9756 4.545H57.4486C58.6826 4.545 59.8486 4.545 60.4506 5.249C60.8096 5.669 60.9186 6.293 60.7816 7.155Z" fill="#179BD7"/>
<path d="M80.4349 7.07362H77.1619C76.8809 7.07362 76.6419 7.27762 76.5999 7.55462L76.4549 8.47062L76.2249 8.13863C75.5159 7.10963 73.9359 6.76562 72.3579 6.76562C68.7389 6.76562 65.6489 9.50663 65.0469 13.3516C64.7349 15.2696 65.1779 17.1036 66.2659 18.3826C67.2659 19.5586 68.6919 20.0486 70.3909 20.0486C73.3069 20.0486 74.9239 18.1736 74.9239 18.1736L74.7779 19.0836C74.7229 19.4316 74.9909 19.7436 75.3419 19.7436H78.2909C78.7579 19.7436 79.1559 19.4036 79.2289 18.9406L80.9999 7.73162C81.0539 7.38662 80.7859 7.07362 80.4349 7.07362ZM75.8699 13.4476C75.5559 15.3186 74.0689 16.5746 72.1749 16.5746C71.2259 16.5746 70.4639 16.2696 69.9759 15.6916C69.4919 15.1176 69.3099 14.3006 69.4619 13.3906C69.7589 11.5356 71.2669 10.2386 73.1319 10.2386C74.0619 10.2386 74.8179 10.5476 75.3159 11.1306C75.8169 11.7196 76.0149 12.5416 75.8699 13.4476Z" fill="#179BD7"/>
<path d="M84.2946 1.22809L81.4876 19.0861C81.4326 19.4321 81.7007 19.7441 82.0497 19.7441H84.8717C85.3407 19.7441 85.7386 19.4041 85.8106 18.9411L88.5787 1.40509C88.6337 1.05909 88.3656 0.746094 88.0166 0.746094H84.8567C84.5777 0.747094 84.3376 0.951094 84.2946 1.22809Z" fill="#179BD7"/>
</svg>