<svg xmlns="http://www.w3.org/2000/svg" width="345" height="60" viewBox="0 0 345 60"><defs><style>.a{fill:#333;}.b,.c{fill:#fff;}.b{stroke:rgba(241,91,38,0);stroke-linejoin:round;}</style></defs><rect class="a" width="345" height="60" rx="30"/><path class="b" d="M1404,535.435a1.437,1.437,0,0,1-1.437,1.437,15.706,15.706,0,0,0-15.687,15.689,1.437,1.437,0,1,1-2.874,0A18.584,18.584,0,0,1,1402.562,534,1.437,1.437,0,0,1,1404,535.435Z" transform="translate(-1374 -527)"/><path class="c" d="M4.068,20a2.4,2.4,0,0,1-2.22-2L.081,10.212A3.026,3.026,0,0,1,.624,7.654,2.132,2.132,0,0,1,2.3,6.8H3.775C3.913,3.025,6.652,0,10,0s6.087,3.025,6.225,6.8H17.7a2.132,2.132,0,0,1,1.678.85,3.029,3.029,0,0,1,.543,2.559L18.147,18a2.39,2.39,0,0,1-2.22,2ZM1.706,9.842l1.767,7.791c.09.4.347.7.6.7H15.93c.249,0,.507-.3.6-.7l1.768-7.791c.095-.413.209-1.372-.6-1.372H2.3C1.554,8.47,1.611,9.428,1.706,9.842ZM5.444,6.8h9.111C14.424,3.943,12.433,1.666,10,1.666S5.575,3.947,5.444,6.8ZM13.929,17a.829.829,0,0,1-.83-.83V10.96a.83.83,0,0,1,.83-.83h.01a.83.83,0,0,1,.831.83v5.21a.83.83,0,0,1-.831.83ZM9.9,17a.829.829,0,0,1-.83-.83V10.96a.83.83,0,0,1,.83-.83H9.91a.83.83,0,0,1,.83.83v5.21a.829.829,0,0,1-.83.83Zm-4.867-.837v-5.2a.833.833,0,0,1,1.665,0v5.2a.833.833,0,1,1-1.665,0Z" transform="translate(302.56 20)"/></svg>