<svg xmlns="http://www.w3.org/2000/svg" width="49.331" height="19.221" viewBox="0 0 49.331 19.221"><defs><style>.a{fill:#fff;}</style></defs><g transform="translate(-199.951 -763)"><g transform="translate(199.951 763)"><path class="a" d="M512.982,178.864a6.265,6.265,0,1,0,6.265,6.265A6.273,6.273,0,0,0,512.982,178.864Zm0,9.471a3.2,3.2,0,1,1,3.2-3.205A3.208,3.208,0,0,1,512.982,188.335Z" transform="translate(-469.916 -177.73)"/><path class="a" d="M303.624,181.1a6.262,6.262,0,0,0-.526-6.253.246.246,0,0,1,.025-.312,3.252,3.252,0,0,1,.632-.5.246.246,0,0,0,.1-.307l-1.019-2.376a.25.25,0,0,0-.143-.134.238.238,0,0,0-.2.014,6.365,6.365,0,0,0-1.766,1.388.249.249,0,0,1-.28.063,6.266,6.266,0,1,0,.345,11.333.252.252,0,0,1,.249.016.244.244,0,0,1,.108.223,3.22,3.22,0,0,1-3.193,2.938,3.171,3.171,0,0,1-1.92-.638.243.243,0,0,0-.321.023l-1.828,1.826a.252.252,0,0,0-.072.184.246.246,0,0,0,.086.177,6.266,6.266,0,0,0,9.722-7.45A.244.244,0,0,1,303.624,181.1Zm-5.667.532a3.2,3.2,0,1,1,3.2-3.205A3.208,3.208,0,0,1,297.957,181.629Z" transform="translate(-281.873 -171.025)"/><path class="a" d="M223.026,183.066l-1.007-2.48a.244.244,0,0,0-.228-.153h-.03a3.209,3.209,0,0,1-3.205-3.205v-2.047a.246.246,0,0,1,.245-.245h3.728a.245.245,0,0,0,.245-.245v-2.325a.245.245,0,0,0-.245-.246H218.8a.245.245,0,0,1-.245-.246v-1.8a.245.245,0,0,0-.246-.245h-2.569a.245.245,0,0,0-.245.245v1.8a.245.245,0,0,1-.245.246h-1.557a.245.245,0,0,0-.244.246v2.325a.245.245,0,0,0,.244.245h1.557a.246.246,0,0,1,.245.245v2.047a6.267,6.267,0,0,0,7.348,6.172.244.244,0,0,0,.183-.334Z" transform="translate(-213.448 -169.829)"/><path class="a" d="M470.461,234.929a3.151,3.151,0,0,1-.447.988c-.054.077-.049.112.007.169l2.053,2.04a.068.068,0,0,0,.1,0,6.245,6.245,0,0,0,1.316-2.7.068.068,0,0,0-.056-.081l-2.9-.458A.066.066,0,0,0,470.461,234.929Z" transform="translate(-437.785 -226.717)"/><path class="a" d="M421.3,249.54l-2.08-2.063a.065.065,0,0,0-.09,0,3.194,3.194,0,0,1-4.1.149c-.069-.054-.137-.11-.2-.169a.1.1,0,0,0-.127-.006l-.2.153-2.1,1.646a.067.067,0,0,0-.008.1,6.253,6.253,0,0,0,8.9.289A.067.067,0,0,0,421.3,249.54Z" transform="translate(-387.42 -237.692)"/><path class="a" d="M402.819,186.926l-.033-.049a3.2,3.2,0,1,1,5.889-1.748c0,.016,0,.033,0,.049s0,.035,0,.052a.072.072,0,0,0,.06.073l.082.013,2.747.434.065.01a.068.068,0,0,0,.082-.059c0-.018,0-.035,0-.053q.021-.257.022-.52a6.266,6.266,0,1,0-11.383,3.612l.052.072a.076.076,0,0,0,.1.01l.057-.044,2.186-1.71.051-.04A.074.074,0,0,0,402.819,186.926Z" transform="translate(-375.895 -177.73)"/></g></g></svg>