<svg width="185" height="76" viewBox="0 0 185 76" fill="none" xmlns="http://www.w3.org/2000/svg">
<path d="M155 8H35C18.4315 8 5 21.4315 5 38C5 54.5685 18.4315 68 35 68H155C171.569 68 185 54.5685 185 38C185 21.4315 171.569 8 155 8Z" fill="#2EADF2"/>
<path d="M71.8125 30.0566H68.1152V33.0801H72.4102V34H66.9902V25.4688H72.3516V26.3945H68.1152V29.1367H71.8125V30.0566ZM74.666 27.6602L74.7012 28.457C75.1855 27.8477 75.8184 27.543 76.5996 27.543C77.9395 27.543 78.6152 28.2988 78.627 29.8105V34H77.543V29.8047C77.5391 29.3477 77.4336 29.0098 77.2266 28.791C77.0234 28.5723 76.7051 28.4629 76.2715 28.4629C75.9199 28.4629 75.6113 28.5566 75.3457 28.7441C75.0801 28.9316 74.873 29.1777 74.7246 29.4824V34H73.6406V27.6602H74.666ZM81.7324 26.125V27.6602H82.916V28.498H81.7324V32.4297C81.7324 32.6836 81.7852 32.875 81.8906 33.0039C81.9961 33.1289 82.1758 33.1914 82.4297 33.1914C82.5547 33.1914 82.7266 33.168 82.9453 33.1211V34C82.6602 34.0781 82.3828 34.1172 82.1133 34.1172C81.6289 34.1172 81.2637 33.9707 81.0176 33.6777C80.7715 33.3848 80.6484 32.9688 80.6484 32.4297V28.498H79.4941V27.6602H80.6484V26.125H81.7324ZM87.252 28.6328C87.0879 28.6055 86.9102 28.5918 86.7188 28.5918C86.0078 28.5918 85.5254 28.8945 85.2715 29.5V34H84.1875V27.6602H85.2422L85.2598 28.3926C85.6152 27.8262 86.1191 27.543 86.7715 27.543C86.9824 27.543 87.1426 27.5703 87.252 27.625V28.6328ZM91.9336 34C91.8711 33.875 91.8203 33.6523 91.7812 33.332C91.2773 33.8555 90.6758 34.1172 89.9766 34.1172C89.3516 34.1172 88.8379 33.9414 88.4355 33.5898C88.0371 33.2344 87.8379 32.7852 87.8379 32.2422C87.8379 31.582 88.0879 31.0703 88.5879 30.707C89.0918 30.3398 89.7988 30.1562 90.709 30.1562H91.7637V29.6582C91.7637 29.2793 91.6504 28.9785 91.4238 28.7559C91.1973 28.5293 90.8633 28.416 90.4219 28.416C90.0352 28.416 89.7109 28.5137 89.4492 28.709C89.1875 28.9043 89.0566 29.1406 89.0566 29.418H87.9668C87.9668 29.1016 88.0781 28.7969 88.3008 28.5039C88.5273 28.207 88.832 27.9727 89.2148 27.8008C89.6016 27.6289 90.0254 27.543 90.4863 27.543C91.2168 27.543 91.7891 27.7266 92.2031 28.0938C92.6172 28.457 92.832 28.959 92.8477 29.5996V32.5176C92.8477 33.0996 92.9219 33.5625 93.0703 33.9062V34H91.9336ZM90.1348 33.1738C90.4746 33.1738 90.7969 33.0859 91.1016 32.9102C91.4062 32.7344 91.627 32.5059 91.7637 32.2246V30.9238H90.9141C89.5859 30.9238 88.9219 31.3125 88.9219 32.0898C88.9219 32.4297 89.0352 32.6953 89.2617 32.8867C89.4883 33.0781 89.7793 33.1738 90.1348 33.1738ZM97.6113 28.6328C97.4473 28.6055 97.2695 28.5918 97.0781 28.5918C96.3672 28.5918 95.8848 28.8945 95.6309 29.5V34H94.5469V27.6602H95.6016L95.6191 28.3926C95.9746 27.8262 96.4785 27.543 97.1309 27.543C97.3418 27.543 97.502 27.5703 97.6113 27.625V28.6328ZM104.133 33.2324C104.52 33.2324 104.857 33.1152 105.146 32.8809C105.436 32.6465 105.596 32.3535 105.627 32.002H106.652C106.633 32.3652 106.508 32.7109 106.277 33.0391C106.047 33.3672 105.738 33.6289 105.352 33.8242C104.969 34.0195 104.562 34.1172 104.133 34.1172C103.27 34.1172 102.582 33.8301 102.07 33.2559C101.562 32.6777 101.309 31.8887 101.309 30.8887V30.707C101.309 30.0898 101.422 29.541 101.648 29.0605C101.875 28.5801 102.199 28.207 102.621 27.9414C103.047 27.6758 103.549 27.543 104.127 27.543C104.838 27.543 105.428 27.7559 105.896 28.1816C106.369 28.6074 106.621 29.1602 106.652 29.8398H105.627C105.596 29.4297 105.439 29.0938 105.158 28.832C104.881 28.5664 104.537 28.4336 104.127 28.4336C103.576 28.4336 103.148 28.6328 102.844 29.0312C102.543 29.4258 102.393 29.998 102.393 30.748V30.9531C102.393 31.6836 102.543 32.2461 102.844 32.6406C103.145 33.0352 103.574 33.2324 104.133 33.2324ZM107.584 30.7715C107.584 30.1504 107.705 29.5918 107.947 29.0957C108.193 28.5996 108.533 28.2168 108.967 27.9473C109.404 27.6777 109.902 27.543 110.461 27.543C111.324 27.543 112.021 27.8418 112.553 28.4395C113.088 29.0371 113.355 29.832 113.355 30.8242V30.9004C113.355 31.5176 113.236 32.0723 112.998 32.5645C112.764 33.0527 112.426 33.4336 111.984 33.707C111.547 33.9805 111.043 34.1172 110.473 34.1172C109.613 34.1172 108.916 33.8184 108.381 33.2207C107.85 32.623 107.584 31.832 107.584 30.8477V30.7715ZM108.674 30.9004C108.674 31.6035 108.836 32.168 109.16 32.5938C109.488 33.0195 109.926 33.2324 110.473 33.2324C111.023 33.2324 111.461 33.0176 111.785 32.5879C112.109 32.1543 112.271 31.5488 112.271 30.7715C112.271 30.0762 112.105 29.5137 111.773 29.084C111.445 28.6504 111.008 28.4336 110.461 28.4336C109.926 28.4336 109.494 28.6465 109.166 29.0723C108.838 29.498 108.674 30.1074 108.674 30.9004ZM115.734 27.6602L115.764 28.3633C116.229 27.8164 116.855 27.543 117.645 27.543C118.531 27.543 119.135 27.8828 119.455 28.5625C119.666 28.2578 119.939 28.0117 120.275 27.8242C120.615 27.6367 121.016 27.543 121.477 27.543C122.867 27.543 123.574 28.2793 123.598 29.752V34H122.514V29.8164C122.514 29.3633 122.41 29.0254 122.203 28.8027C121.996 28.5762 121.648 28.4629 121.16 28.4629C120.758 28.4629 120.424 28.584 120.158 28.8262C119.893 29.0645 119.738 29.3867 119.695 29.793V34H118.605V29.8457C118.605 28.9238 118.154 28.4629 117.252 28.4629C116.541 28.4629 116.055 28.7656 115.793 29.3711V34H114.709V27.6602H115.734ZM74.3809 42.708H71.332V51H69.2812V42.708H66.2734V41.0469H74.3809V42.708ZM81.5312 48.3135L82.502 43.6035H84.4092L82.5225 51H80.8682L79.4668 46.3447L78.0654 51H76.418L74.5312 43.6035H76.4385L77.4023 48.3066L78.7559 43.6035H80.1846L81.5312 48.3135ZM87.4785 51H85.4961V43.6035H87.4785V51ZM85.3799 41.6895C85.3799 41.3932 85.4779 41.1494 85.6738 40.958C85.8743 40.7666 86.1455 40.6709 86.4873 40.6709C86.8245 40.6709 87.0934 40.7666 87.2939 40.958C87.4945 41.1494 87.5947 41.3932 87.5947 41.6895C87.5947 41.9902 87.4922 42.2363 87.2871 42.4277C87.0866 42.6191 86.82 42.7148 86.4873 42.7148C86.1546 42.7148 85.8857 42.6191 85.6807 42.4277C85.4801 42.2363 85.3799 41.9902 85.3799 41.6895ZM91.4775 41.7852V43.6035H92.7422V45.0527H91.4775V48.7441C91.4775 49.0176 91.5299 49.2135 91.6348 49.332C91.7396 49.4505 91.9401 49.5098 92.2363 49.5098C92.4551 49.5098 92.6488 49.4938 92.8174 49.4619V50.959C92.43 51.0775 92.0312 51.1367 91.6211 51.1367C90.2357 51.1367 89.5293 50.4372 89.502 49.0381V45.0527H88.4219V43.6035H89.502V41.7852H91.4775ZM96.208 41.7852V43.6035H97.4727V45.0527H96.208V48.7441C96.208 49.0176 96.2604 49.2135 96.3652 49.332C96.4701 49.4505 96.6706 49.5098 96.9668 49.5098C97.1855 49.5098 97.3792 49.4938 97.5479 49.4619V50.959C97.1605 51.0775 96.7617 51.1367 96.3516 51.1367C94.9661 51.1367 94.2598 50.4372 94.2324 49.0381V45.0527H93.1523V43.6035H94.2324V41.7852H96.208ZM101.978 51.1367C100.893 51.1367 100.009 50.804 99.3252 50.1387C98.6462 49.4733 98.3066 48.5869 98.3066 47.4795V47.2881C98.3066 46.5452 98.4502 45.8822 98.7373 45.2988C99.0244 44.7109 99.43 44.2598 99.9541 43.9453C100.483 43.6263 101.084 43.4668 101.759 43.4668C102.771 43.4668 103.566 43.7858 104.145 44.4238C104.728 45.0618 105.02 45.9665 105.02 47.1377V47.9443H100.31C100.373 48.4274 100.565 48.8148 100.884 49.1064C101.207 49.3981 101.615 49.5439 102.107 49.5439C102.868 49.5439 103.463 49.2682 103.892 48.7168L104.862 49.8037C104.566 50.223 104.165 50.5511 103.659 50.7881C103.153 51.0205 102.593 51.1367 101.978 51.1367ZM101.752 45.0664C101.36 45.0664 101.041 45.1986 100.795 45.4629C100.553 45.7272 100.398 46.1055 100.33 46.5977H103.078V46.4404C103.069 46.0029 102.951 45.6657 102.723 45.4287C102.495 45.1872 102.171 45.0664 101.752 45.0664ZM110.304 45.4561C110.035 45.4196 109.798 45.4014 109.593 45.4014C108.845 45.4014 108.355 45.6543 108.123 46.1602V51H106.147V43.6035H108.014L108.068 44.4854C108.465 43.8063 109.014 43.4668 109.716 43.4668C109.935 43.4668 110.14 43.4964 110.331 43.5557L110.304 45.4561Z" fill="white"/>
<g filter="url(#filter0_d)">
<path d="M38 56C47.9411 56 56 47.9411 56 38C56 28.0589 47.9411 20 38 20C28.0589 20 20 28.0589 20 38C20 47.9411 28.0589 56 38 56Z" fill="#2EADF2"/>
</g>
<path d="M44.555 34.5089C44.566 34.6629 44.566 34.8169 44.566 34.9709C44.5752 36.3011 44.3199 37.6198 43.8151 38.8505C43.3103 40.0812 42.5659 41.1993 41.6252 42.1398C40.6846 43.0804 39.5664 43.8246 38.3357 44.3294C37.1049 44.8341 35.7862 45.0892 34.456 45.0799C32.5217 45.0849 30.6271 44.531 29 43.4849C29.2849 43.5163 29.5714 43.531 29.858 43.5289C31.4571 43.5329 33.011 42.9981 34.269 42.0109C33.5276 41.9974 32.8089 41.7527 32.2133 41.311C31.6177 40.8692 31.175 40.2525 30.947 39.5469C31.169 39.582 31.3933 39.6004 31.618 39.6019C31.9335 39.601 32.2476 39.5603 32.553 39.4809C31.7478 39.3189 31.0235 38.883 30.5034 38.2472C29.9832 37.6115 29.6993 36.8153 29.7 35.9939V35.9499C30.1923 36.2247 30.7426 36.3792 31.306 36.4009C30.5525 35.8974 30.0195 35.1253 29.8158 34.2422C29.6121 33.3591 29.7531 32.4316 30.21 31.6489C31.1025 32.7473 32.2158 33.6459 33.4779 34.2864C34.74 34.9269 36.1225 35.295 37.536 35.3669C37.479 35.0993 37.4495 34.8265 37.448 34.5529C37.4477 33.8395 37.662 33.1425 38.063 32.5525C38.4639 31.9624 39.033 31.5065 39.6964 31.2441C40.3598 30.9816 41.0867 30.9247 41.7828 31.0807C42.479 31.2367 43.1121 31.5984 43.6 32.1189C44.3957 31.9656 45.1587 31.6753 45.855 31.2609C45.5895 32.0822 45.0334 32.7785 44.291 33.2189C44.9966 33.1386 45.6862 32.9532 46.337 32.6689C45.8508 33.3782 45.2483 34.0002 44.555 34.5089V34.5089Z" fill="white"/>
<path d="M155 19.437C155 19.8181 155.151 20.1836 155.421 20.4531C155.69 20.7226 156.056 20.874 156.437 20.874C160.596 20.879 164.584 22.5336 167.525 25.4749C170.465 28.4161 172.12 32.4037 172.124 36.5629C172.124 36.944 172.275 37.3096 172.545 37.579C172.814 37.8485 173.18 37.9999 173.561 37.9999C173.942 37.9999 174.308 37.8485 174.577 37.579C174.847 37.3096 174.998 36.944 174.998 36.5629C174.992 31.6423 173.035 26.925 169.555 23.4454C166.076 19.9659 161.359 18.0083 156.438 18.002C156.057 18.0017 155.692 18.1527 155.422 18.4218C155.152 18.6908 155.001 19.056 155 19.437V19.437Z" fill="white"/>
<defs>
<filter id="filter0_d" x="0" y="0" width="76" height="76" filterUnits="userSpaceOnUse" color-interpolation-filters="sRGB">
<feFlood flood-opacity="0" result="BackgroundImageFix"/>
<feColorMatrix in="SourceAlpha" type="matrix" values="0 0 0 0 0 0 0 0 0 0 0 0 0 0 0 0 0 0 127 0"/>
<feOffset/>
<feGaussianBlur stdDeviation="10"/>
<feColorMatrix type="matrix" values="0 0 0 0 0 0 0 0 0 0.380392 0 0 0 0 0.584314 0 0 0 1 0"/>
<feBlend mode="normal" in2="BackgroundImageFix" result="effect1_dropShadow"/>
<feBlend mode="normal" in="SourceGraphic" in2="effect1_dropShadow" result="shape"/>
</filter>
</defs>
</svg>