<svg xmlns="http://www.w3.org/2000/svg" xmlns:xlink="http://www.w3.org/1999/xlink" width="195" height="96" viewBox="0 0 195 96"><defs><style>.a{fill:#2eadf2;}.b,.d,.e{fill:#fff;}.b{font-size:12px;font-family:SFProDisplay-Medium, SF Pro Display;font-weight:500;}.c{font-size:16px;font-family:SFProDisplay-Bold, SF Pro Display;font-weight:700;}.e{stroke:rgba(241,91,38,0);stroke-linejoin:round;}.f{filter:url(#a);}</style><filter id="a" x="0" y="0" width="96" height="96" filterUnits="userSpaceOnUse"><feOffset input="SourceAlpha"/><feGaussianBlur stdDeviation="10" result="b"/><feFlood flood-color="#006195"/><feComposite operator="in" in2="b"/><feComposite in="SourceGraphic"/></filter></defs><g transform="translate(-945 -348)"><rect class="a" width="180" height="60" rx="30" transform="translate(960 366)"/><g transform="translate(975 378)"><text class="b" transform="translate(46 14)"><tspan x="0" y="0">Entrar com</tspan><tspan class="c"><tspan x="0" y="16">Twitter</tspan></tspan></text><g class="f" transform="matrix(1, 0, 0, 1, -30, -30)"><circle class="a" cx="18" cy="18" r="18" transform="translate(30 30)"/></g><path class="d" d="M15.555,6.89c.011.154.011.308.011.462A10.04,10.04,0,0,1,5.456,17.461,10.041,10.041,0,0,1,0,15.866a7.35,7.35,0,0,0,.858.044,7.116,7.116,0,0,0,4.411-1.518,3.559,3.559,0,0,1-3.322-2.464,4.481,4.481,0,0,0,.671.055,3.758,3.758,0,0,0,.935-.121A3.554,3.554,0,0,1,.7,8.375V8.331a3.578,3.578,0,0,0,1.606.451A3.558,3.558,0,0,1,1.21,4.03,10.1,10.1,0,0,0,8.536,7.748a4.011,4.011,0,0,1-.088-.814A3.557,3.557,0,0,1,14.6,4.5a7,7,0,0,0,2.255-.858A3.544,3.544,0,0,1,15.291,5.6a7.123,7.123,0,0,0,2.046-.55A7.638,7.638,0,0,1,15.555,6.89Z" transform="translate(9 7.619)"/></g><path class="e" d="M1384,535.435a1.437,1.437,0,0,0,1.437,1.437,15.706,15.706,0,0,1,15.687,15.689,1.437,1.437,0,1,0,2.874,0A18.584,18.584,0,0,0,1385.438,534,1.437,1.437,0,0,0,1384,535.435Z" transform="translate(-274 -157.998)"/></g></svg>